<svg width="202" height="133" viewBox="0 0 202 133" fill="none" xmlns="http://www.w3.org/2000/svg">
<path fill-rule="evenodd" clip-rule="evenodd" d="M105.359 26.5683C105.359 23.9015 103.197 21.7396 100.53 21.7396C97.8636 21.7396 95.7017 23.9015 95.7017 26.5683V31.3972C95.7017 32.8926 95.7017 33.6402 95.8007 34.2659C96.3461 37.7096 99.047 40.4104 102.491 40.9558C103.116 41.0548 103.864 41.0548 105.359 41.0548H110.188C112.855 41.0548 115.017 38.8929 115.017 36.226C115.017 33.5591 112.855 31.3972 110.188 31.3972H106.084C105.684 31.3972 105.359 31.073 105.359 30.6729V26.5683Z" fill="#176B4D"/>
<g style="mix-blend-mode:darken">
<path fill-rule="evenodd" clip-rule="evenodd" d="M95.6408 45.9446C95.6408 48.6114 97.8028 50.7734 100.47 50.7734C103.137 50.7734 105.298 48.6114 105.298 45.9446V41.2659C105.298 39.9101 105.298 39.2322 105.217 38.664C104.71 35.1264 101.93 32.3471 98.3928 31.8399C97.8246 31.7584 97.1467 31.7584 95.7909 31.7584H90.7369C88.1115 31.7584 85.9831 33.8866 85.9831 36.5121C85.9831 39.1375 88.1115 41.2658 90.7369 41.2658H94.9166C95.3166 41.2658 95.6408 41.5902 95.6408 41.9901V45.9446Z" fill="#EA4335"/>
</g>
<path d="M91.9646 4.40192C91.4408 2.44716 89.4227 1.26984 87.53 1.98614C81.4799 4.2758 76.1217 8.13557 72.0234 13.1966C67.9251 18.2576 65.2637 24.3012 64.2819 30.6952C63.9748 32.6954 65.546 34.4246 67.5669 34.5305C69.5878 34.6364 71.2888 33.0764 71.6458 31.0844C72.5146 26.2373 74.5949 21.6661 77.7187 17.8086C80.8425 13.951 84.8812 10.9658 89.4419 9.10816C91.3161 8.34476 92.4883 6.35667 91.9646 4.40192Z" fill="#EA4335"/>
<path d="M71.6166 17.1345C74.4641 17.1345 76.7725 14.8261 76.7725 11.9785C76.7725 9.13092 74.4641 6.82251 71.6166 6.82251C68.769 6.82251 66.4606 9.13092 66.4606 11.9785C66.4606 14.8261 68.769 17.1345 71.6166 17.1345Z" fill="#EA4335" stroke="white" stroke-width="2.01407"/>
<path d="M132.354 27.7212C134.309 27.1974 135.487 25.1792 134.77 23.2865C132.481 17.2365 128.621 11.8783 123.56 7.77997C118.499 3.68163 112.455 1.02023 106.061 0.0384845C104.061 -0.268646 102.332 1.30254 102.226 3.32348C102.12 5.34441 103.68 7.04532 105.672 7.40237C110.519 8.27121 115.09 10.3515 118.948 13.4752C122.805 16.5991 125.791 20.6377 127.648 25.1984C128.412 27.0726 130.4 28.2449 132.354 27.7212Z" fill="#176B4D"/>
<path d="M119.622 7.37314C119.622 10.2207 121.931 12.5291 124.778 12.5291C127.626 12.5291 129.934 10.2207 129.934 7.37314C129.934 4.52557 127.626 2.21716 124.778 2.21716C121.931 2.21716 119.622 4.52557 119.622 7.37314Z" fill="#176B4D" stroke="white" stroke-width="2.01407"/>
<path d="M109.035 68.1111C109.559 70.0658 111.577 71.2432 113.47 70.5269C119.52 68.2372 124.878 64.3774 128.977 59.3165C133.075 54.2554 135.736 48.2118 136.718 41.8179C137.025 39.8176 135.454 38.0884 133.433 37.9825C131.412 37.8766 129.711 39.4366 129.354 41.4286C128.485 46.2757 126.405 50.8469 123.281 54.7044C120.157 58.562 116.119 61.5472 111.558 63.4049C109.684 64.1683 108.512 66.1564 109.035 68.1111Z" fill="#EA4335"/>
<path d="M129.383 55.3788C126.536 55.3788 124.227 57.6872 124.227 60.5348C124.227 63.3823 126.536 65.6907 129.383 65.6907C132.231 65.6907 134.539 63.3823 134.539 60.5348C134.539 57.6872 132.231 55.3788 129.383 55.3788Z" fill="#EA4335" stroke="white" stroke-width="2.01407"/>
<path d="M68.6455 44.792C66.6907 45.3158 65.5134 47.3339 66.2297 49.2266C68.5193 55.2766 72.3791 60.6349 77.4401 64.7332C82.5012 68.8316 88.5448 71.493 94.9387 72.4747C96.9389 72.7819 98.6681 71.2106 98.774 69.1897C98.88 67.1687 97.3199 65.4679 95.3279 65.1107C90.4808 64.2419 85.9096 62.1616 82.0521 59.0379C78.1946 55.9141 75.2093 51.8754 73.3517 47.3147C72.5883 45.4405 70.6002 44.2683 68.6455 44.792Z" fill="#176B4D"/>
<path d="M81.3778 65.1399C81.3778 62.2923 79.0694 59.9839 76.2218 59.9839C73.3742 59.9839 71.0658 62.2923 71.0658 65.1399C71.0658 67.9875 73.3742 70.2959 76.2218 70.2959C79.0694 70.2959 81.3778 67.9875 81.3778 65.1399Z" fill="#176B4D" stroke="white" stroke-width="2.01407"/>
<path d="M46.7773 95.0983H43.5961V86.1243H46.8036C47.7063 86.1243 48.4833 86.3039 49.1348 86.6632C49.7862 87.0196 50.2872 87.5323 50.6377 88.2013C50.9912 88.8702 51.1679 89.6707 51.1679 90.6025C51.1679 91.5373 50.9912 92.3407 50.6377 93.0126C50.2872 93.6844 49.7833 94.2 49.126 94.5594C48.4716 94.9187 47.6887 95.0983 46.7773 95.0983ZM45.4934 93.4727H46.6984C47.2593 93.4727 47.7311 93.3733 48.1138 93.1747C48.4994 92.9731 48.7886 92.662 48.9814 92.2414C49.1771 91.8178 49.275 91.2715 49.275 90.6025C49.275 89.9394 49.1771 89.3975 48.9814 88.9769C48.7886 88.5562 48.5008 88.2466 48.1182 88.0479C47.7355 87.8493 47.2637 87.75 46.7028 87.75H45.4934V93.4727ZM52.5384 95.0983V88.3678H54.405V95.0983H52.5384ZM53.4761 87.5002C53.1986 87.5002 52.9605 87.4082 52.7618 87.2241C52.5661 87.0372 52.4683 86.8137 52.4683 86.5537C52.4683 86.2966 52.5661 86.0761 52.7618 85.892C52.9605 85.7051 53.1986 85.6116 53.4761 85.6116C53.7536 85.6116 53.9902 85.7051 54.1859 85.892C54.3846 86.0761 54.4839 86.2966 54.4839 86.5537C54.4839 86.8137 54.3846 87.0372 54.1859 87.2241C53.9902 87.4082 53.7536 87.5002 53.4761 87.5002ZM55.9003 95.0983V88.3678H57.71V89.5421H57.7802C57.9029 89.1244 58.1088 88.8089 58.398 88.5956C58.6872 88.3795 59.0202 88.2714 59.3971 88.2714C59.4905 88.2714 59.5913 88.2772 59.6994 88.2889C59.8075 88.3006 59.9024 88.3167 59.9842 88.3371V89.9935C59.8966 89.9672 59.7754 89.9438 59.6205 89.9234C59.4657 89.9029 59.324 89.8927 59.1955 89.8927C58.9209 89.8927 58.6755 89.9526 58.4593 90.0723C58.2461 90.1892 58.0767 90.3528 57.9511 90.5631C57.8284 90.7734 57.767 91.0159 57.767 91.2905V95.0983H55.9003ZM63.7033 95.2298C63.011 95.2298 62.4151 95.0896 61.9155 94.8091C61.4189 94.5258 61.0362 94.1256 60.7675 93.6085C60.4987 93.0885 60.3644 92.4736 60.3644 91.7637C60.3644 91.0714 60.4987 90.4638 60.7675 89.9409C61.0362 89.418 61.4145 89.0105 61.9024 88.7183C62.3932 88.4262 62.9686 88.2802 63.6288 88.2802C64.0729 88.2802 64.4862 88.3517 64.8689 88.4949C65.2545 88.6351 65.5905 88.8469 65.8767 89.1302C66.1659 89.4136 66.3909 89.77 66.5515 90.1994C66.7122 90.6259 66.7925 91.1254 66.7925 91.698V92.2107H61.1093V91.0539H65.0354C65.0354 90.7851 64.977 90.547 64.8601 90.3396C64.7433 90.1322 64.5812 89.9701 64.3738 89.8532C64.1693 89.7335 63.9312 89.6736 63.6595 89.6736C63.3762 89.6736 63.1249 89.7393 62.9058 89.8708C62.6897 89.9993 62.5202 90.1731 62.3975 90.3922C62.2749 90.6084 62.212 90.8494 62.2091 91.1152V92.2151C62.2091 92.5481 62.2705 92.8358 62.3932 93.0783C62.5188 93.3208 62.6955 93.5077 62.9234 93.6392C63.1512 93.7706 63.4214 93.8364 63.734 93.8364C63.9414 93.8364 64.1313 93.8071 64.3037 93.7487C64.476 93.6903 64.6235 93.6027 64.7462 93.4858C64.8689 93.369 64.9624 93.2258 65.0267 93.0564L66.7531 93.1703C66.6655 93.5851 66.4858 93.9474 66.2141 94.257C65.9454 94.5637 65.5978 94.8033 65.1713 94.9756C64.7477 95.1451 64.2584 95.2298 63.7033 95.2298ZM71.0517 95.2298C70.3623 95.2298 69.7693 95.0837 69.2727 94.7916C68.779 94.4966 68.3992 94.0876 68.1334 93.5647C67.8705 93.0418 67.739 92.44 67.739 91.7594C67.739 91.0699 67.872 90.4652 68.1378 89.9453C68.4065 89.4224 68.7878 89.0148 69.2814 88.7227C69.7751 88.4277 70.3623 88.2802 71.043 88.2802C71.6301 88.2802 72.1443 88.3868 72.5854 88.6C73.0265 88.8133 73.3756 89.1127 73.6326 89.4983C73.8897 89.8839 74.0314 90.3367 74.0577 90.8567H72.2962C72.2465 90.5207 72.1151 90.2505 71.9018 90.046C71.6915 89.8386 71.4154 89.7349 71.0736 89.7349C70.7844 89.7349 70.5317 89.8138 70.3156 89.9716C70.1023 90.1264 69.9358 90.3528 69.816 90.6507C69.6963 90.9487 69.6364 91.3095 69.6364 91.7331C69.6364 92.1625 69.6948 92.5276 69.8117 92.8285C69.9314 93.1294 70.0994 93.3587 70.3156 93.5165C70.5317 93.6742 70.7844 93.7531 71.0736 93.7531C71.2869 93.7531 71.4782 93.7093 71.6477 93.6216C71.82 93.534 71.9617 93.4069 72.0727 93.2404C72.1866 93.071 72.2611 92.868 72.2962 92.6313H74.0577C74.0285 93.1455 73.8882 93.5983 73.637 93.9897C73.3887 94.3782 73.0455 94.6821 72.6073 94.9011C72.1691 95.1202 71.6506 95.2298 71.0517 95.2298ZM78.8328 88.3678V89.77H74.7796V88.3678H78.8328ZM75.6998 86.7553H77.5664V93.0301C77.5664 93.2024 77.5927 93.3368 77.6453 93.4332C77.6979 93.5267 77.7709 93.5924 77.8644 93.6304C77.9608 93.6684 78.0718 93.6874 78.1974 93.6874C78.2851 93.6874 78.3727 93.6801 78.4603 93.6655C78.548 93.6479 78.6152 93.6348 78.6619 93.626L78.9555 95.0151C78.862 95.0443 78.7306 95.0779 78.5611 95.1159C78.3917 95.1568 78.1857 95.1816 77.9433 95.1903C77.4934 95.2079 77.099 95.148 76.7602 95.0107C76.4242 94.8734 76.1628 94.6601 75.9758 94.3709C75.7889 94.0817 75.6968 93.7166 75.6998 93.2755V86.7553ZM80.0488 95.0983V88.3678H81.9154V95.0983H80.0488ZM80.9865 87.5002C80.709 87.5002 80.4709 87.4082 80.2722 87.2241C80.0765 87.0372 79.9787 86.8137 79.9787 86.5537C79.9787 86.2966 80.0765 86.0761 80.2722 85.892C80.4709 85.7051 80.709 85.6116 80.9865 85.6116C81.264 85.6116 81.5006 85.7051 81.6963 85.892C81.895 86.0761 81.9943 86.2966 81.9943 86.5537C81.9943 86.8137 81.895 87.0372 81.6963 87.2241C81.5006 87.4082 81.264 87.5002 80.9865 87.5002ZM86.4518 95.2298C85.7711 95.2298 85.1825 95.0852 84.6859 94.796C84.1922 94.5039 83.811 94.0978 83.5422 93.5778C83.2735 93.0549 83.1391 92.4488 83.1391 91.7594C83.1391 91.0641 83.2735 90.4565 83.5422 89.9365C83.811 89.4136 84.1922 89.0075 84.6859 88.7183C85.1825 88.4262 85.7711 88.2802 86.4518 88.2802C87.1324 88.2802 87.7196 88.4262 88.2133 88.7183C88.7099 89.0075 89.0926 89.4136 89.3613 89.9365C89.6301 90.4565 89.7644 91.0641 89.7644 91.7594C89.7644 92.4488 89.6301 93.0549 89.3613 93.5778C89.0926 94.0978 88.7099 94.5039 88.2133 94.796C87.7196 95.0852 87.1324 95.2298 86.4518 95.2298ZM86.4605 93.7838C86.7702 93.7838 87.0287 93.6961 87.2361 93.5209C87.4435 93.3427 87.5998 93.1002 87.705 92.7935C87.8131 92.4867 87.8671 92.1377 87.8671 91.7462C87.8671 91.3548 87.8131 91.0057 87.705 90.6989C87.5998 90.3922 87.4435 90.1497 87.2361 89.9716C87.0287 89.7934 86.7702 89.7043 86.4605 89.7043C86.1479 89.7043 85.885 89.7934 85.6718 89.9716C85.4615 90.1497 85.3023 90.3922 85.1942 90.6989C85.089 91.0057 85.0364 91.3548 85.0364 91.7462C85.0364 92.1377 85.089 92.4867 85.1942 92.7935C85.3023 93.1002 85.4615 93.3427 85.6718 93.5209C85.885 93.6961 86.1479 93.7838 86.4605 93.7838ZM92.8449 91.2072V95.0983H90.9782V88.3678H92.7573V89.5553H92.8361C92.9851 89.1638 93.2349 88.8542 93.5854 88.6263C93.936 88.3955 94.361 88.2802 94.8605 88.2802C95.3279 88.2802 95.7355 88.3824 96.0831 88.5869C96.4307 88.7914 96.7009 89.0835 96.8937 89.4633C97.0865 89.8401 97.1829 90.29 97.1829 90.8129V95.0983H95.3163V91.1459C95.3192 90.734 95.214 90.4127 95.0008 90.1819C94.7875 89.9482 94.4939 89.8313 94.12 89.8313C93.8688 89.8313 93.6468 89.8854 93.454 89.9935C93.2641 90.1015 93.1151 90.2593 93.007 90.4667C92.9019 90.6712 92.8478 90.918 92.8449 91.2072ZM107.496 89.0251C107.434 88.8118 107.348 88.6234 107.237 88.4598C107.126 88.2933 106.99 88.1531 106.83 88.0392C106.672 87.9223 106.491 87.8332 106.286 87.7719C106.085 87.7105 105.861 87.6798 105.616 87.6798C105.157 87.6798 104.754 87.7938 104.406 88.0216C104.062 88.2495 103.793 88.581 103.6 89.0163C103.407 89.4487 103.311 89.9774 103.311 90.6025C103.311 91.2277 103.406 91.7594 103.596 92.1975C103.786 92.6357 104.054 92.9702 104.402 93.201C104.75 93.4288 105.16 93.5428 105.633 93.5428C106.063 93.5428 106.429 93.4668 106.733 93.3149C107.04 93.1601 107.274 92.9425 107.434 92.662C107.598 92.3816 107.68 92.05 107.68 91.6673L108.065 91.7243H105.752V90.2958H109.507V91.4263C109.507 92.2151 109.34 92.8928 109.007 93.4595C108.674 94.0233 108.216 94.4586 107.631 94.7653C107.047 95.0691 106.378 95.221 105.625 95.221C104.783 95.221 104.044 95.0355 103.407 94.6645C102.771 94.2906 102.274 93.7604 101.918 93.0739C101.564 92.3845 101.387 91.5665 101.387 90.6201C101.387 89.8927 101.492 89.2442 101.703 88.6745C101.916 88.102 102.214 87.617 102.597 87.2197C102.979 86.8225 103.425 86.5201 103.933 86.3127C104.441 86.1053 104.992 86.0016 105.585 86.0016C106.093 86.0016 106.567 86.0761 107.005 86.2251C107.443 86.3711 107.832 86.5785 108.17 86.8473C108.512 87.116 108.791 87.4359 109.007 87.8069C109.224 88.175 109.362 88.581 109.424 89.0251H107.496ZM113.964 95.2298C113.272 95.2298 112.676 95.0896 112.177 94.8091C111.68 94.5258 111.297 94.1256 111.029 93.6085C110.76 93.0885 110.625 92.4736 110.625 91.7637C110.625 91.0714 110.76 90.4638 111.029 89.9409C111.297 89.418 111.676 89.0105 112.163 88.7183C112.654 88.4262 113.23 88.2802 113.89 88.2802C114.334 88.2802 114.747 88.3517 115.13 88.4949C115.516 88.6351 115.851 88.8469 116.138 89.1302C116.427 89.4136 116.652 89.77 116.813 90.1994C116.973 90.6259 117.054 91.1254 117.054 91.698V92.2107H111.37V91.0539H115.296C115.296 90.7851 115.238 90.547 115.121 90.3396C115.004 90.1322 114.842 89.9701 114.635 89.8532C114.43 89.7335 114.192 89.6736 113.921 89.6736C113.637 89.6736 113.386 89.7393 113.167 89.8708C112.951 89.9993 112.781 90.1731 112.659 90.3922C112.536 90.6084 112.473 90.8494 112.47 91.1152V92.2151C112.47 92.5481 112.531 92.8358 112.654 93.0783C112.78 93.3208 112.957 93.5077 113.184 93.6392C113.412 93.7706 113.682 93.8364 113.995 93.8364C114.202 93.8364 114.392 93.8071 114.565 93.7487C114.737 93.6903 114.885 93.6027 115.007 93.4858C115.13 93.369 115.223 93.2258 115.288 93.0564L117.014 93.1703C116.926 93.5851 116.747 93.9474 116.475 94.257C116.206 94.5637 115.859 94.8033 115.432 94.9756C115.009 95.1451 114.519 95.2298 113.964 95.2298ZM113.176 87.5002L114.105 85.5064H115.831L114.495 87.5002H113.176ZM120.138 91.2072V95.0983H118.272V88.3678H120.051V89.5553H120.13C120.279 89.1638 120.528 88.8542 120.879 88.6263C121.229 88.3955 121.655 88.2802 122.154 88.2802C122.621 88.2802 123.029 88.3824 123.377 88.5869C123.724 88.7914 123.994 89.0835 124.187 89.4633C124.38 89.8401 124.476 90.29 124.476 90.8129V95.0983H122.61V91.1459C122.613 90.734 122.508 90.4127 122.294 90.1819C122.081 89.9482 121.787 89.8313 121.414 89.8313C121.162 89.8313 120.94 89.8854 120.747 89.9935C120.558 90.1015 120.409 90.2593 120.301 90.4667C120.195 90.6712 120.141 90.918 120.138 91.2072ZM129.015 95.2298C128.323 95.2298 127.727 95.0896 127.227 94.8091C126.731 94.5258 126.348 94.1256 126.079 93.6085C125.81 93.0885 125.676 92.4736 125.676 91.7637C125.676 91.0714 125.81 90.4638 126.079 89.9409C126.348 89.418 126.726 89.0105 127.214 88.7183C127.705 88.4262 128.28 88.2802 128.94 88.2802C129.384 88.2802 129.798 88.3517 130.181 88.4949C130.566 88.6351 130.902 88.8469 131.188 89.1302C131.478 89.4136 131.702 89.77 131.863 90.1994C132.024 90.6259 132.104 91.1254 132.104 91.698V92.2107H126.421V91.0539H130.347C130.347 90.7851 130.289 90.547 130.172 90.3396C130.055 90.1322 129.893 89.9701 129.685 89.8532C129.481 89.7335 129.243 89.6736 128.971 89.6736C128.688 89.6736 128.437 89.7393 128.217 89.8708C128.001 89.9993 127.832 90.1731 127.709 90.3922C127.586 90.6084 127.524 90.8494 127.521 91.1152V92.2151C127.521 92.5481 127.582 92.8358 127.705 93.0783C127.83 93.3208 128.007 93.5077 128.235 93.6392C128.463 93.7706 128.733 93.8364 129.046 93.8364C129.253 93.8364 129.443 93.8071 129.615 93.7487C129.788 93.6903 129.935 93.6027 130.058 93.4858C130.181 93.369 130.274 93.2258 130.338 93.0564L132.065 93.1703C131.977 93.5851 131.797 93.9474 131.526 94.257C131.257 94.5637 130.909 94.8033 130.483 94.9756C130.059 95.1451 129.57 95.2298 129.015 95.2298ZM128.226 87.5002L129.155 85.5064H130.882L129.545 87.5002H128.226ZM133.322 95.0983V88.3678H135.132V89.5421H135.202C135.325 89.1244 135.531 88.8089 135.82 88.5956C136.109 88.3795 136.442 88.2714 136.819 88.2714C136.913 88.2714 137.013 88.2772 137.121 88.2889C137.229 88.3006 137.324 88.3167 137.406 88.3371V89.9935C137.319 89.9672 137.197 89.9438 137.043 89.9234C136.888 89.9029 136.746 89.8927 136.617 89.8927C136.343 89.8927 136.097 89.9526 135.881 90.0723C135.668 90.1892 135.499 90.3528 135.373 90.5631C135.25 90.7734 135.189 91.0159 135.189 91.2905V95.0983H133.322ZM140.098 95.2254C139.668 95.2254 139.286 95.1509 138.95 95.0019C138.614 94.85 138.348 94.6265 138.152 94.3315C137.959 94.0335 137.863 93.6625 137.863 93.2185C137.863 92.8446 137.932 92.5306 138.069 92.2764C138.206 92.0223 138.393 91.8178 138.63 91.663C138.866 91.5081 139.135 91.3913 139.436 91.3124C139.74 91.2335 140.058 91.178 140.391 91.1459C140.783 91.105 141.098 91.067 141.338 91.032C141.577 90.994 141.751 90.9385 141.859 90.8655C141.967 90.7924 142.021 90.6843 142.021 90.5412V90.5149C142.021 90.2374 141.934 90.0227 141.758 89.8708C141.586 89.7189 141.341 89.6429 141.022 89.6429C140.686 89.6429 140.419 89.7174 140.22 89.8664C140.022 90.0125 139.89 90.1965 139.826 90.4185L138.1 90.2783C138.187 89.8693 138.36 89.5158 138.617 89.2179C138.874 88.917 139.205 88.6862 139.611 88.5255C140.02 88.3619 140.494 88.2802 141.031 88.2802C141.405 88.2802 141.763 88.324 142.105 88.4116C142.449 88.4992 142.755 88.6351 143.02 88.8191C143.289 89.0032 143.501 89.2398 143.656 89.529C143.811 89.8153 143.888 90.1585 143.888 90.5587V95.0983H142.118V94.165H142.065C141.957 94.3753 141.813 94.5608 141.631 94.7215C141.45 94.8792 141.233 95.0034 140.979 95.0939C140.724 95.1816 140.431 95.2254 140.098 95.2254ZM140.632 93.9371C140.907 93.9371 141.149 93.8831 141.36 93.775C141.57 93.664 141.735 93.515 141.855 93.3281C141.975 93.1411 142.035 92.9293 142.035 92.6927V91.9784C141.976 92.0164 141.896 92.0515 141.794 92.0836C141.694 92.1128 141.582 92.1406 141.456 92.1669C141.331 92.1902 141.205 92.2121 141.079 92.2326C140.954 92.2501 140.84 92.2662 140.738 92.2808C140.518 92.3129 140.327 92.364 140.163 92.4342C140 92.5043 139.873 92.5992 139.782 92.719C139.692 92.8358 139.646 92.9819 139.646 93.1572C139.646 93.4113 139.738 93.6056 139.922 93.74C140.109 93.8714 140.346 93.9371 140.632 93.9371ZM147.203 86.1243V95.0983H145.336V86.1243H147.203ZM151.766 95.2298C151.073 95.2298 150.477 95.0896 149.978 94.8091C149.481 94.5258 149.098 94.1256 148.83 93.6085C148.561 93.0885 148.427 92.4736 148.427 91.7637C148.427 91.0714 148.561 90.4638 148.83 89.9409C149.098 89.418 149.477 89.0105 149.965 88.7183C150.455 88.4262 151.031 88.2802 151.691 88.2802C152.135 88.2802 152.548 88.3517 152.931 88.4949C153.317 88.6351 153.653 88.8469 153.939 89.1302C154.228 89.4136 154.453 89.77 154.614 90.1994C154.774 90.6259 154.855 91.1254 154.855 91.698V92.2107H149.171V91.0539H153.098C153.098 90.7851 153.039 90.547 152.922 90.3396C152.806 90.1322 152.643 89.9701 152.436 89.8532C152.231 89.7335 151.993 89.6736 151.722 89.6736C151.438 89.6736 151.187 89.7393 150.968 89.8708C150.752 89.9993 150.582 90.1731 150.46 90.3922C150.337 90.6084 150.274 90.8494 150.271 91.1152V92.2151C150.271 92.5481 150.333 92.8358 150.455 93.0783C150.581 93.3208 150.758 93.5077 150.986 93.6392C151.213 93.7706 151.484 93.8364 151.796 93.8364C152.004 93.8364 152.194 93.8071 152.366 93.7487C152.538 93.6903 152.686 93.6027 152.808 93.4858C152.931 93.369 153.025 93.2258 153.089 93.0564L154.815 93.1703C154.728 93.5851 154.548 93.9474 154.276 94.257C154.008 94.5637 153.66 94.8033 153.233 94.9756C152.81 95.1451 152.321 95.2298 151.766 95.2298ZM32.6294 110.208C32.1182 110.208 31.6552 110.076 31.2403 109.814C30.8284 109.548 30.5013 109.158 30.2588 108.644C30.0193 108.126 29.8995 107.493 29.8995 106.742C29.8995 105.971 30.0236 105.329 30.272 104.818C30.5203 104.304 30.8504 103.92 31.2623 103.666C31.6771 103.409 32.1313 103.28 32.625 103.28C33.0018 103.28 33.3159 103.344 33.5671 103.473C33.8213 103.599 34.0257 103.756 34.1806 103.946C34.3383 104.133 34.4581 104.317 34.5399 104.498H34.5968V101.124H36.4591V110.098H34.6188V109.02H34.5399C34.4522 109.207 34.3281 109.393 34.1674 109.577C34.0097 109.758 33.8037 109.908 33.5496 110.028C33.2984 110.148 32.9916 110.208 32.6294 110.208ZM33.2209 108.722C33.5218 108.722 33.776 108.641 33.9834 108.477C34.1937 108.311 34.3544 108.078 34.4654 107.78C34.5793 107.482 34.6363 107.133 34.6363 106.733C34.6363 106.333 34.5808 105.985 34.4698 105.69C34.3588 105.395 34.1981 105.167 33.9878 105.007C33.7774 104.846 33.5218 104.766 33.2209 104.766C32.9142 104.766 32.6557 104.849 32.4454 105.015C32.235 105.182 32.0758 105.413 31.9677 105.708C31.8596 106.003 31.8056 106.345 31.8056 106.733C31.8056 107.125 31.8596 107.471 31.9677 107.772C32.0787 108.07 32.2379 108.303 32.4454 108.473C32.6557 108.639 32.9142 108.722 33.2209 108.722ZM41.0612 110.23C40.3688 110.23 39.7729 110.09 39.2734 109.809C38.7768 109.526 38.3941 109.126 38.1253 108.608C37.8566 108.089 37.7222 107.474 37.7222 106.764C37.7222 106.071 37.8566 105.464 38.1253 104.941C38.3941 104.418 38.7724 104.01 39.2602 103.718C39.751 103.426 40.3265 103.28 40.9867 103.28C41.4307 103.28 41.8441 103.352 42.2268 103.495C42.6124 103.635 42.9483 103.847 43.2346 104.13C43.5238 104.414 43.7487 104.77 43.9094 105.199C44.0701 105.626 44.1504 106.125 44.1504 106.698V107.211H38.4671V106.054H42.3933C42.3933 105.785 42.3348 105.547 42.218 105.34C42.1011 105.132 41.939 104.97 41.7316 104.853C41.5271 104.733 41.289 104.674 41.0174 104.674C40.734 104.674 40.4828 104.739 40.2637 104.871C40.0475 104.999 39.8781 105.173 39.7554 105.392C39.6327 105.608 39.5699 105.849 39.567 106.115V107.215C39.567 107.548 39.6283 107.836 39.751 108.078C39.8766 108.321 40.0534 108.508 40.2812 108.639C40.5091 108.771 40.7793 108.836 41.0919 108.836C41.2993 108.836 41.4891 108.807 41.6615 108.749C41.8339 108.69 41.9814 108.603 42.1041 108.486C42.2268 108.369 42.3202 108.226 42.3845 108.056L44.111 108.17C44.0233 108.585 43.8437 108.947 43.572 109.257C43.3032 109.564 42.9556 109.803 42.5291 109.976C42.1055 110.145 41.6162 110.23 41.0612 110.23ZM48.2595 110.098V101.124H54.2013V102.689H50.1568V104.827H53.8069V106.391H50.1568V110.098H48.2595ZM57.9894 110.23C57.3087 110.23 56.7201 110.085 56.2235 109.796C55.7298 109.504 55.3486 109.098 55.0798 108.578C54.8111 108.055 54.6767 107.449 54.6767 106.759C54.6767 106.064 54.8111 105.456 55.0798 104.936C55.3486 104.414 55.7298 104.008 56.2235 103.718C56.7201 103.426 57.3087 103.28 57.9894 103.28C58.67 103.28 59.2572 103.426 59.7509 103.718C60.2475 104.008 60.6302 104.414 60.899 104.936C61.1677 105.456 61.3021 106.064 61.3021 106.759C61.3021 107.449 61.1677 108.055 60.899 108.578C60.6302 109.098 60.2475 109.504 59.7509 109.796C59.2572 110.085 58.67 110.23 57.9894 110.23ZM57.9982 108.784C58.3078 108.784 58.5663 108.696 58.7738 108.521C58.9812 108.343 59.1374 108.1 59.2426 107.793C59.3507 107.487 59.4047 107.138 59.4047 106.746C59.4047 106.355 59.3507 106.006 59.2426 105.699C59.1374 105.392 58.9812 105.15 58.7738 104.972C58.5663 104.793 58.3078 104.704 57.9982 104.704C57.6856 104.704 57.4227 104.793 57.2094 104.972C56.9991 105.15 56.8399 105.392 56.7318 105.699C56.6266 106.006 56.5741 106.355 56.5741 106.746C56.5741 107.138 56.6266 107.487 56.7318 107.793C56.8399 108.1 56.9991 108.343 57.2094 108.521C57.4227 108.696 57.6856 108.784 57.9982 108.784ZM66.832 107.233V103.368H68.6987V110.098H66.9065V108.876H66.8364C66.6845 109.27 66.4318 109.587 66.0783 109.827C65.7278 110.066 65.2998 110.186 64.7944 110.186C64.3446 110.186 63.9487 110.084 63.6069 109.879C63.2652 109.675 62.9979 109.384 62.8051 109.007C62.6152 108.63 62.5188 108.179 62.5159 107.653V103.368H64.3825V107.32C64.3855 107.718 64.4921 108.032 64.7024 108.262C64.9127 108.493 65.1946 108.608 65.5481 108.608C65.773 108.608 65.9834 108.557 66.1791 108.455C66.3748 108.35 66.5326 108.195 66.6523 107.991C66.775 107.786 66.8349 107.533 66.832 107.233ZM70.1918 110.098V103.368H72.0015V104.542H72.0716C72.1943 104.124 72.4002 103.809 72.6894 103.596C72.9786 103.379 73.3117 103.271 73.6885 103.271C73.782 103.271 73.8828 103.277 73.9909 103.289C74.0989 103.301 74.1939 103.317 74.2757 103.337V104.993C74.188 104.967 74.0668 104.944 73.912 104.923C73.7572 104.903 73.6155 104.893 73.4869 104.893C73.2123 104.893 72.967 104.953 72.7508 105.072C72.5375 105.189 72.3681 105.353 72.2425 105.563C72.1198 105.773 72.0585 106.016 72.0585 106.29V110.098H70.1918ZM77.1075 106.207V110.098H75.2408V103.368H77.0198V104.555H77.0987C77.2477 104.164 77.4974 103.854 77.848 103.626C78.1985 103.396 78.6236 103.28 79.1231 103.28C79.5905 103.28 79.998 103.382 80.3456 103.587C80.6933 103.791 80.9635 104.083 81.1563 104.463C81.3491 104.84 81.4455 105.29 81.4455 105.813V110.098H79.5788V106.146C79.5817 105.734 79.4766 105.413 79.2633 105.182C79.0501 104.948 78.7565 104.831 78.3826 104.831C78.1313 104.831 77.9093 104.885 77.7165 104.993C77.5267 105.102 77.3777 105.259 77.2696 105.467C77.1644 105.671 77.1104 105.918 77.1075 106.207ZM82.9167 110.098V103.368H84.7834V110.098H82.9167ZM83.8544 102.5C83.5769 102.5 83.3388 102.408 83.1402 102.224C82.9445 102.037 82.8466 101.814 82.8466 101.554C82.8466 101.297 82.9445 101.076 83.1402 100.892C83.3388 100.705 83.5769 100.612 83.8544 100.612C84.1319 100.612 84.3686 100.705 84.5643 100.892C84.7629 101.076 84.8622 101.297 84.8622 101.554C84.8622 101.814 84.7629 102.037 84.5643 102.224C84.3686 102.408 84.1319 102.5 83.8544 102.5ZM89.8587 103.368V104.77H85.8054V103.368H89.8587ZM86.7256 101.755H88.5923V108.03C88.5923 108.202 88.6186 108.337 88.6712 108.433C88.7238 108.527 88.7968 108.592 88.8903 108.63C88.9867 108.668 89.0977 108.687 89.2233 108.687C89.3109 108.687 89.3986 108.68 89.4862 108.665C89.5738 108.648 89.641 108.635 89.6878 108.626L89.9814 110.015C89.8879 110.044 89.7564 110.078 89.587 110.116C89.4176 110.157 89.2116 110.182 88.9691 110.19C88.5193 110.208 88.1249 110.148 87.786 110.011C87.4501 109.873 87.1886 109.66 87.0017 109.371C86.8147 109.082 86.7227 108.717 86.7256 108.275V101.755ZM95.3908 107.233V103.368H97.2574V110.098H95.4653V108.876H95.3951C95.2432 109.27 94.9905 109.587 94.6371 109.827C94.2865 110.066 93.8586 110.186 93.3532 110.186C92.9033 110.186 92.5075 110.084 92.1657 109.879C91.8239 109.675 91.5566 109.384 91.3638 109.007C91.174 108.63 91.0775 108.179 91.0746 107.653V103.368H92.9413V107.32C92.9442 107.718 93.0508 108.032 93.2612 108.262C93.4715 108.493 93.7534 108.608 94.1069 108.608C94.3318 108.608 94.5421 108.557 94.7379 108.455C94.9336 108.35 95.0913 108.195 95.2111 107.991C95.3338 107.786 95.3937 107.533 95.3908 107.233ZM98.7505 110.098V103.368H100.56V104.542H100.63C100.753 104.124 100.959 103.809 101.248 103.596C101.537 103.379 101.87 103.271 102.247 103.271C102.341 103.271 102.442 103.277 102.55 103.289C102.658 103.301 102.753 103.317 102.834 103.337V104.993C102.747 104.967 102.626 104.944 102.471 104.923C102.316 104.903 102.174 104.893 102.046 104.893C101.771 104.893 101.526 104.953 101.31 105.072C101.096 105.189 100.927 105.353 100.801 105.563C100.679 105.773 100.617 106.016 100.617 106.29V110.098H98.7505ZM106.554 110.23C105.861 110.23 105.265 110.09 104.766 109.809C104.269 109.526 103.886 109.126 103.618 108.608C103.349 108.089 103.215 107.474 103.215 106.764C103.215 106.071 103.349 105.464 103.618 104.941C103.886 104.418 104.265 104.01 104.753 103.718C105.243 103.426 105.819 103.28 106.479 103.28C106.923 103.28 107.336 103.352 107.719 103.495C108.105 103.635 108.441 103.847 108.727 104.13C109.016 104.414 109.241 104.77 109.402 105.199C109.562 105.626 109.643 106.125 109.643 106.698V107.211H103.959V106.054H107.886C107.886 105.785 107.827 105.547 107.71 105.34C107.594 105.132 107.431 104.97 107.224 104.853C107.019 104.733 106.781 104.674 106.51 104.674C106.226 104.674 105.975 104.739 105.756 104.871C105.54 104.999 105.37 105.173 105.248 105.392C105.125 105.608 105.062 105.849 105.059 106.115V107.215C105.059 107.548 105.121 107.836 105.243 108.078C105.369 108.321 105.546 108.508 105.774 108.639C106.001 108.771 106.272 108.836 106.584 108.836C106.792 108.836 106.982 108.807 107.154 108.749C107.326 108.69 107.474 108.603 107.596 108.486C107.719 108.369 107.813 108.226 107.877 108.056L109.603 108.17C109.516 108.585 109.336 108.947 109.064 109.257C108.796 109.564 108.448 109.803 108.021 109.976C107.598 110.145 107.109 110.23 106.554 110.23ZM116.197 110.208C115.686 110.208 115.223 110.076 114.808 109.814C114.396 109.548 114.069 109.158 113.826 108.644C113.587 108.126 113.467 107.493 113.467 106.742C113.467 105.971 113.591 105.329 113.839 104.818C114.088 104.304 114.418 103.92 114.83 103.666C115.245 103.409 115.699 103.28 116.193 103.28C116.569 103.28 116.883 103.344 117.135 103.473C117.389 103.599 117.593 103.756 117.748 103.946C117.906 104.133 118.026 104.317 118.107 104.498H118.164V101.124H120.027V110.098H118.186V109.02H118.107C118.02 109.207 117.896 109.393 117.735 109.577C117.577 109.758 117.371 109.908 117.117 110.028C116.866 110.148 116.559 110.208 116.197 110.208ZM116.788 108.722C117.089 108.722 117.344 108.641 117.551 108.477C117.761 108.311 117.922 108.078 118.033 107.78C118.147 107.482 118.204 107.133 118.204 106.733C118.204 106.333 118.148 105.985 118.037 105.69C117.926 105.395 117.766 105.167 117.555 105.007C117.345 104.846 117.089 104.766 116.788 104.766C116.482 104.766 116.223 104.849 116.013 105.015C115.803 105.182 115.643 105.413 115.535 105.708C115.427 106.003 115.373 106.345 115.373 106.733C115.373 107.125 115.427 107.471 115.535 107.772C115.646 108.07 115.805 108.303 116.013 108.473C116.223 108.639 116.482 108.722 116.788 108.722ZM124.629 110.23C123.936 110.23 123.34 110.09 122.841 109.809C122.344 109.526 121.962 109.126 121.693 108.608C121.424 108.089 121.29 107.474 121.29 106.764C121.29 106.071 121.424 105.464 121.693 104.941C121.962 104.418 122.34 104.01 122.828 103.718C123.319 103.426 123.894 103.28 124.554 103.28C124.998 103.28 125.412 103.352 125.794 103.495C126.18 103.635 126.516 103.847 126.802 104.13C127.091 104.414 127.316 104.77 127.477 105.199C127.638 105.626 127.718 106.125 127.718 106.698V107.211H122.035V106.054H125.961C125.961 105.785 125.902 105.547 125.786 105.34C125.669 105.132 125.507 104.97 125.299 104.853C125.095 104.733 124.857 104.674 124.585 104.674C124.302 104.674 124.05 104.739 123.831 104.871C123.615 104.999 123.446 105.173 123.323 105.392C123.2 105.608 123.137 105.849 123.134 106.115V107.215C123.134 107.548 123.196 107.836 123.319 108.078C123.444 108.321 123.621 108.508 123.849 108.639C124.077 108.771 124.347 108.836 124.659 108.836C124.867 108.836 125.057 108.807 125.229 108.749C125.401 108.69 125.549 108.603 125.672 108.486C125.794 108.369 125.888 108.226 125.952 108.056L127.678 108.17C127.591 108.585 127.411 108.947 127.14 109.257C126.871 109.564 126.523 109.803 126.097 109.976C125.673 110.145 125.184 110.23 124.629 110.23ZM134.536 105.287L132.827 105.392C132.798 105.246 132.735 105.115 132.639 104.998C132.542 104.878 132.415 104.783 132.258 104.713C132.103 104.64 131.917 104.603 131.701 104.603C131.412 104.603 131.168 104.665 130.969 104.788C130.771 104.907 130.671 105.068 130.671 105.27C130.671 105.43 130.736 105.566 130.864 105.677C130.993 105.788 131.213 105.877 131.526 105.944L132.744 106.19C133.398 106.324 133.886 106.54 134.207 106.838C134.529 107.136 134.689 107.528 134.689 108.013C134.689 108.454 134.559 108.841 134.299 109.174C134.042 109.507 133.689 109.767 133.239 109.954C132.792 110.138 132.277 110.23 131.692 110.23C130.801 110.23 130.091 110.044 129.563 109.673C129.037 109.299 128.729 108.791 128.638 108.148L130.474 108.052C130.53 108.324 130.664 108.531 130.877 108.674C131.09 108.814 131.364 108.885 131.697 108.885C132.024 108.885 132.287 108.822 132.485 108.696C132.687 108.568 132.789 108.403 132.792 108.201C132.789 108.032 132.718 107.893 132.577 107.785C132.437 107.674 132.221 107.589 131.929 107.531L130.763 107.298C130.106 107.167 129.617 106.939 129.295 106.615C128.977 106.29 128.818 105.877 128.818 105.375C128.818 104.942 128.935 104.57 129.168 104.257C129.405 103.945 129.736 103.704 130.163 103.534C130.592 103.365 131.095 103.28 131.67 103.28C132.52 103.28 133.189 103.46 133.677 103.819C134.168 104.178 134.454 104.668 134.536 105.287ZM143.624 103.705C143.589 103.352 143.439 103.077 143.173 102.881C142.907 102.686 142.546 102.588 142.09 102.588C141.781 102.588 141.519 102.632 141.306 102.719C141.093 102.804 140.929 102.922 140.815 103.074C140.704 103.226 140.649 103.398 140.649 103.591C140.643 103.752 140.677 103.892 140.75 104.012C140.826 104.132 140.929 104.235 141.061 104.323C141.192 104.408 141.344 104.482 141.516 104.547C141.689 104.608 141.873 104.66 142.069 104.704L142.875 104.897C143.266 104.985 143.626 105.102 143.953 105.248C144.28 105.394 144.563 105.573 144.803 105.787C145.042 106 145.228 106.251 145.359 106.54C145.494 106.829 145.562 107.161 145.565 107.535C145.562 108.084 145.422 108.56 145.145 108.963C144.87 109.364 144.473 109.675 143.953 109.897C143.436 110.116 142.812 110.225 142.082 110.225C141.357 110.225 140.726 110.114 140.189 109.892C139.654 109.67 139.236 109.342 138.935 108.906C138.638 108.468 138.481 107.926 138.467 107.281H140.303C140.323 107.582 140.409 107.833 140.561 108.034C140.716 108.233 140.922 108.384 141.179 108.486C141.439 108.585 141.733 108.635 142.06 108.635C142.381 108.635 142.66 108.588 142.897 108.495C143.136 108.401 143.322 108.271 143.453 108.105C143.585 107.938 143.65 107.747 143.65 107.531C143.65 107.329 143.59 107.16 143.471 107.022C143.354 106.885 143.182 106.768 142.954 106.672C142.729 106.575 142.453 106.488 142.125 106.409L141.148 106.163C140.392 105.979 139.794 105.692 139.356 105.3C138.918 104.909 138.7 104.381 138.703 103.718C138.7 103.175 138.845 102.7 139.137 102.294C139.432 101.888 139.837 101.571 140.351 101.343C140.865 101.116 141.449 101.002 142.104 101.002C142.77 101.002 143.351 101.116 143.848 101.343C144.347 101.571 144.736 101.888 145.013 102.294C145.291 102.7 145.434 103.171 145.443 103.705H143.624ZM149.847 110.23C149.167 110.23 148.578 110.085 148.082 109.796C147.588 109.504 147.207 109.098 146.938 108.578C146.669 108.055 146.535 107.449 146.535 106.759C146.535 106.064 146.669 105.456 146.938 104.936C147.207 104.414 147.588 104.008 148.082 103.718C148.578 103.426 149.167 103.28 149.847 103.28C150.528 103.28 151.115 103.426 151.609 103.718C152.106 104.008 152.488 104.414 152.757 104.936C153.026 105.456 153.16 106.064 153.16 106.759C153.16 107.449 153.026 108.055 152.757 108.578C152.488 109.098 152.106 109.504 151.609 109.796C151.115 110.085 150.528 110.23 149.847 110.23ZM149.856 108.784C150.166 108.784 150.424 108.696 150.632 108.521C150.839 108.343 150.995 108.1 151.101 107.793C151.209 107.487 151.263 107.138 151.263 106.746C151.263 106.355 151.209 106.006 151.101 105.699C150.995 105.392 150.839 105.15 150.632 104.972C150.424 104.793 150.166 104.704 149.856 104.704C149.544 104.704 149.281 104.793 149.067 104.972C148.857 105.15 148.698 105.392 148.59 105.699C148.485 106.006 148.432 106.355 148.432 106.746C148.432 107.138 148.485 107.487 148.59 107.793C148.698 108.1 148.857 108.343 149.067 108.521C149.281 108.696 149.544 108.784 149.856 108.784ZM154.374 110.098V103.368H156.241V110.098H154.374ZM155.312 102.5C155.034 102.5 154.796 102.408 154.597 102.224C154.402 102.037 154.304 101.814 154.304 101.554C154.304 101.297 154.402 101.076 154.597 100.892C154.796 100.705 155.034 100.612 155.312 100.612C155.589 100.612 155.826 100.705 156.021 100.892C156.22 101.076 156.319 101.297 156.319 101.554C156.319 101.814 156.22 102.037 156.021 102.224C155.826 102.408 155.589 102.5 155.312 102.5ZM159.603 106.207V110.098H157.736V103.368H159.515V104.555H159.594C159.743 104.164 159.993 103.854 160.343 103.626C160.694 103.396 161.119 103.28 161.618 103.28C162.086 103.28 162.493 103.382 162.841 103.587C163.188 103.791 163.459 104.083 163.651 104.463C163.844 104.84 163.941 105.29 163.941 105.813V110.098H162.074V106.146C162.077 105.734 161.972 105.413 161.758 105.182C161.545 104.948 161.252 104.831 160.878 104.831C160.626 104.831 160.404 104.885 160.212 104.993C160.022 105.102 159.873 105.259 159.765 105.467C159.659 105.671 159.605 105.918 159.603 106.207ZM171.012 105.287L169.303 105.392C169.274 105.246 169.211 105.115 169.114 104.998C169.018 104.878 168.891 104.783 168.733 104.713C168.578 104.64 168.393 104.603 168.177 104.603C167.888 104.603 167.644 104.665 167.445 104.788C167.246 104.907 167.147 105.068 167.147 105.27C167.147 105.43 167.211 105.566 167.34 105.677C167.468 105.788 167.689 105.877 168.001 105.944L169.22 106.19C169.874 106.324 170.362 106.54 170.683 106.838C171.004 107.136 171.165 107.528 171.165 108.013C171.165 108.454 171.035 108.841 170.775 109.174C170.518 109.507 170.165 109.767 169.715 109.954C169.268 110.138 168.752 110.23 168.168 110.23C167.277 110.23 166.567 110.044 166.038 109.673C165.513 109.299 165.204 108.791 165.114 108.148L166.95 108.052C167.005 108.324 167.14 108.531 167.353 108.674C167.566 108.814 167.839 108.885 168.172 108.885C168.5 108.885 168.762 108.822 168.961 108.696C169.163 108.568 169.265 108.403 169.268 108.201C169.265 108.032 169.193 107.893 169.053 107.785C168.913 107.674 168.697 107.589 168.405 107.531L167.239 107.298C166.582 107.167 166.092 106.939 165.771 106.615C165.453 106.29 165.293 105.877 165.293 105.375C165.293 104.942 165.41 104.57 165.644 104.257C165.881 103.945 166.212 103.704 166.639 103.534C167.068 103.365 167.571 103.28 168.146 103.28C168.996 103.28 169.665 103.46 170.153 103.819C170.644 104.178 170.93 104.668 171.012 105.287Z" fill="#EA4335"/>
<path d="M1.30294 123.465L1.45192 122.624C1.49574 122.376 1.58484 122.114 1.71921 121.839C1.85651 121.565 2.02886 121.302 2.23627 121.051C2.4466 120.8 2.6803 120.585 2.93737 120.407L3.49825 120.871C3.285 121.131 3.09073 121.403 2.91546 121.686C2.74019 121.969 2.62626 122.278 2.57367 122.611L2.42469 123.465H1.30294ZM3.53768 123.465L3.68667 122.624C3.73049 122.376 3.81958 122.114 3.95396 121.839C4.09126 121.565 4.26361 121.302 4.47102 121.051C4.68135 120.8 4.91505 120.585 5.17212 120.407L5.733 120.871C5.51974 121.131 5.32548 121.403 5.15021 121.686C4.97493 121.969 4.86101 122.278 4.80842 122.611L4.65944 123.465H3.53768ZM14.7651 123.071C14.768 122.63 14.6249 122.292 14.3357 122.059C14.0494 121.825 13.6492 121.708 13.1351 121.708C12.767 121.708 12.4383 121.766 12.1491 121.883C11.8629 121.997 11.6292 122.155 11.448 122.357C11.2698 122.555 11.1603 122.782 11.1194 123.036C11.0814 123.249 11.1004 123.433 11.1764 123.588C11.2552 123.743 11.3677 123.873 11.5138 123.978C11.6627 124.08 11.8263 124.166 12.0045 124.236C12.1827 124.304 12.3551 124.359 12.5216 124.403L13.3629 124.631C13.6346 124.701 13.9106 124.796 14.1911 124.916C14.4715 125.035 14.7242 125.193 14.9491 125.389C15.1741 125.585 15.342 125.827 15.4531 126.116C15.5641 126.405 15.586 126.752 15.5188 127.155C15.4311 127.663 15.2252 128.114 14.9009 128.509C14.5767 128.903 14.1487 129.214 13.6171 129.442C13.0854 129.67 12.469 129.784 11.7679 129.784C11.096 129.784 10.5308 129.677 10.0721 129.464C9.61642 129.251 9.28194 128.948 9.06868 128.557C8.85543 128.163 8.77948 127.695 8.84083 127.155H10.2036C10.1715 127.479 10.2299 127.749 10.3789 127.965C10.5308 128.179 10.744 128.338 11.0186 128.443C11.2932 128.545 11.6043 128.596 11.9519 128.596C12.3376 128.596 12.6896 128.536 13.008 128.417C13.3264 128.294 13.5893 128.125 13.7967 127.908C14.0041 127.689 14.1312 127.434 14.1779 127.142C14.2247 126.876 14.1867 126.658 14.064 126.489C13.9442 126.319 13.7631 126.179 13.5207 126.068C13.2811 125.957 13.008 125.859 12.7012 125.774L11.689 125.485C11.0025 125.289 10.4826 125.002 10.1291 124.622C9.77562 124.242 9.64855 123.74 9.74787 123.115C9.83551 122.598 10.0517 122.146 10.3964 121.761C10.7411 121.375 11.1705 121.076 11.6847 120.862C12.1988 120.646 12.7567 120.538 13.3585 120.538C13.9661 120.538 14.4832 120.646 14.9097 120.862C15.3362 121.079 15.6517 121.376 15.8562 121.756C16.0607 122.136 16.1322 122.574 16.0709 123.071H14.7651ZM19.1042 120.661L18.5784 123.855H17.4917L18.0175 120.661H19.1042ZM24.0349 126.844L24.6922 122.904H26.0068L24.885 129.635H23.5967L23.7939 128.469H23.7238C23.5135 128.829 23.2155 129.128 22.8299 129.368C22.4472 129.604 22.0032 129.722 21.4978 129.722C21.0655 129.722 20.6989 129.628 20.398 129.438C20.1 129.245 19.8882 128.96 19.7626 128.583C19.637 128.206 19.6195 127.74 19.71 127.185L20.4287 122.904H21.7388L21.0509 127.028C20.9778 127.486 21.0465 127.851 21.2568 128.123C21.4672 128.395 21.7739 128.531 22.177 128.531C22.4224 128.531 22.6765 128.469 22.9395 128.347C23.2024 128.224 23.4346 128.038 23.6362 127.79C23.8407 127.542 23.9736 127.226 24.0349 126.844ZM28.6173 125.639L27.96 129.635H26.6498L27.7716 122.904H29.0291L28.8451 124H28.9284C29.1416 123.64 29.4323 123.354 29.8004 123.141C30.1714 122.925 30.6095 122.817 31.1149 122.817C31.5706 122.817 31.9533 122.913 32.263 123.106C32.5755 123.296 32.7961 123.579 32.9246 123.956C33.0561 124.333 33.0765 124.799 32.986 125.354L32.2673 129.635H30.9572L31.6451 125.511C31.724 125.024 31.6597 124.642 31.4523 124.368C31.2478 124.09 30.9221 123.952 30.4752 123.952C30.1714 123.952 29.8895 124.017 29.6295 124.149C29.3724 124.28 29.1548 124.473 28.9766 124.727C28.8013 124.978 28.6815 125.282 28.6173 125.639ZM34.0201 129.635L35.1418 122.904H36.452L35.3303 129.635H34.0201ZM36.0708 121.853C35.8429 121.853 35.6501 121.777 35.4924 121.625C35.3376 121.47 35.266 121.286 35.2777 121.073C35.2894 120.857 35.3799 120.672 35.5494 120.521C35.7188 120.366 35.916 120.288 36.1409 120.288C36.3688 120.288 36.5601 120.366 36.7149 120.521C36.8698 120.672 36.9428 120.857 36.934 121.073C36.9223 121.286 36.8318 121.47 36.6623 121.625C36.4958 121.777 36.2987 121.853 36.0708 121.853ZM37.0929 129.635L38.2146 122.904H39.481L39.3013 123.973H39.3714C39.5525 123.611 39.8169 123.326 40.1645 123.119C40.5122 122.909 40.8832 122.804 41.2775 122.804C41.3623 122.804 41.4587 122.806 41.5667 122.812C41.6748 122.815 41.7625 122.822 41.8297 122.834L41.6193 124.087C41.5697 124.073 41.4791 124.057 41.3476 124.039C41.2162 124.019 41.0804 124.009 40.9401 124.009C40.6334 124.009 40.3486 124.074 40.0857 124.206C39.8228 124.334 39.6022 124.514 39.424 124.745C39.2458 124.973 39.1304 125.233 39.0778 125.525L38.403 129.635H37.0929ZM44.702 132.159L46.2531 122.904H47.5326L47.353 123.995H47.4625C47.5619 123.855 47.6962 123.693 47.8657 123.509C48.038 123.325 48.2644 123.164 48.5449 123.027C48.8253 122.887 49.1744 122.817 49.5921 122.817C50.1355 122.817 50.5956 122.954 50.9724 123.229C51.3492 123.503 51.618 123.899 51.7787 124.416C51.9393 124.933 51.9598 125.555 51.84 126.283C51.7202 127.01 51.4953 127.634 51.1652 128.154C50.8351 128.671 50.4349 129.07 49.9646 129.35C49.4972 129.628 48.9903 129.766 48.4441 129.766C48.0351 129.766 47.7123 129.698 47.4757 129.56C47.242 129.423 47.0682 129.262 46.9542 129.078C46.8403 128.894 46.7541 128.731 46.6957 128.588H46.6168L46.0209 132.159H44.702ZM46.9761 126.27C46.9002 126.743 46.9002 127.158 46.9761 127.514C47.0521 127.87 47.204 128.149 47.4319 128.351C47.6626 128.55 47.9664 128.649 48.3433 128.649C48.7347 128.649 49.078 128.545 49.373 128.338C49.6681 128.127 49.912 127.843 50.1048 127.483C50.3005 127.124 50.4364 126.719 50.5123 126.27C50.5853 125.826 50.5839 125.427 50.5079 125.073C50.4349 124.72 50.2845 124.441 50.0566 124.236C49.8287 124.032 49.5176 123.93 49.1233 123.93C48.7406 123.93 48.4017 124.028 48.1067 124.223C47.8145 124.419 47.5721 124.692 47.3793 125.043C47.1865 125.393 47.0521 125.802 46.9761 126.27ZM55.6117 129.771C54.9719 129.771 54.4374 129.625 54.0079 129.332C53.5785 129.037 53.2762 128.626 53.1009 128.097C52.9285 127.565 52.8993 126.947 53.0133 126.243C53.1243 125.554 53.3477 124.952 53.6837 124.438C54.0225 123.924 54.4461 123.525 54.9544 123.242C55.4656 122.958 56.0338 122.817 56.659 122.817C57.2987 122.817 57.8318 122.964 58.2583 123.259C58.6878 123.554 58.9901 123.968 59.1654 124.499C59.3407 125.031 59.3713 125.65 59.2574 126.357C59.1464 127.041 58.92 127.64 58.5782 128.154C58.2393 128.665 57.8158 129.062 57.3075 129.346C56.7992 129.629 56.2339 129.771 55.6117 129.771ZM55.6862 128.671C56.1068 128.671 56.4735 128.56 56.786 128.338C57.1015 128.116 57.3586 127.821 57.5572 127.453C57.7559 127.085 57.8917 126.681 57.9648 126.243C58.0319 125.82 58.0305 125.433 57.9604 125.082C57.8932 124.729 57.7471 124.445 57.5222 124.232C57.2972 124.019 56.9847 123.912 56.5845 123.912C56.1638 123.912 55.7943 124.025 55.4759 124.25C55.1604 124.472 54.9033 124.768 54.7046 125.139C54.5089 125.51 54.376 125.915 54.3059 126.353C54.2387 126.773 54.2387 127.161 54.3059 127.514C54.3731 127.865 54.5192 128.145 54.7441 128.355C54.969 128.566 55.2831 128.671 55.6862 128.671ZM64.9089 126.844L65.5662 122.904H66.8807L65.759 129.635H64.4707L64.6679 128.469H64.5978C64.3875 128.829 64.0895 129.128 63.7039 129.368C63.3212 129.604 62.8772 129.722 62.3718 129.722C61.9395 129.722 61.5728 129.628 61.272 129.438C60.974 129.245 60.7622 128.96 60.6366 128.583C60.511 128.206 60.4934 127.74 60.584 127.185L61.3026 122.904H62.6128L61.9249 127.028C61.8518 127.486 61.9205 127.851 62.1308 128.123C62.3411 128.395 62.6479 128.531 63.051 128.531C63.2964 128.531 63.5505 128.469 63.8134 128.347C64.0763 128.224 64.3086 128.038 64.5102 127.79C64.7146 127.542 64.8476 127.226 64.9089 126.844ZM67.5194 129.635L68.6411 122.904H69.9075L69.7278 123.973H69.798C69.9791 123.611 70.2434 123.326 70.5911 123.119C70.9387 122.909 71.3097 122.804 71.7041 122.804C71.7888 122.804 71.8852 122.806 71.9933 122.812C72.1014 122.815 72.189 122.822 72.2562 122.834L72.0459 124.087C71.9962 124.073 71.9056 124.057 71.7742 124.039C71.6427 124.019 71.5069 124.009 71.3667 124.009C71.0599 124.009 70.7751 124.074 70.5122 124.206C70.2493 124.334 70.0287 124.514 69.8505 124.745C69.6723 124.973 69.557 125.233 69.5044 125.525L68.8296 129.635H67.5194ZM78.0556 129.766C77.5093 129.766 77.0463 129.628 76.6665 129.35C76.2897 129.07 76.0224 128.671 75.8646 128.154C75.7098 127.634 75.6923 127.01 75.8121 126.283C75.9348 125.555 76.1611 124.933 76.4912 124.416C76.8213 123.899 77.2216 123.503 77.6919 123.229C78.1622 122.954 78.669 122.817 79.2124 122.817C79.6301 122.817 79.9544 122.887 80.1852 123.027C80.4189 123.164 80.5912 123.325 80.7022 123.509C80.8132 123.693 80.8965 123.855 80.952 123.995H81.0265L81.583 120.661H82.8931L81.4033 129.635H80.1238L80.3035 128.588H80.1939C80.0917 128.731 79.95 128.894 79.7689 129.078C79.5907 129.262 79.3628 129.423 79.0853 129.56C78.8078 129.698 78.4645 129.766 78.0556 129.766ZM78.4981 128.649C78.875 128.649 79.2124 128.55 79.5103 128.351C79.8112 128.149 80.061 127.87 80.2596 127.514C80.4612 127.158 80.6014 126.743 80.6803 126.27C80.7592 125.802 80.7577 125.393 80.6759 125.043C80.5941 124.692 80.4364 124.419 80.2027 124.223C79.969 124.028 79.6608 123.93 79.2781 123.93C78.8837 123.93 78.5405 124.032 78.2484 124.236C77.9563 124.441 77.7167 124.72 77.5297 125.073C77.3457 125.427 77.2172 125.826 77.1441 126.27C77.0682 126.719 77.0653 127.124 77.1354 127.483C77.2055 127.843 77.353 128.127 77.5779 128.338C77.8029 128.545 78.1096 128.649 78.4981 128.649ZM86.1522 129.771C85.492 129.771 84.9457 129.629 84.5133 129.346C84.0839 129.059 83.783 128.658 83.6107 128.141C83.4383 127.621 83.4106 127.012 83.5274 126.313C83.6413 125.624 83.8707 125.016 84.2154 124.491C84.5601 123.965 84.9895 123.554 85.5036 123.259C86.0207 122.964 86.5918 122.817 87.2169 122.817C87.5967 122.817 87.9546 122.879 88.2905 123.005C88.6294 123.131 88.9171 123.328 89.1537 123.597C89.3903 123.865 89.5539 124.214 89.6445 124.644C89.738 125.07 89.7351 125.589 89.6357 126.199L89.5612 126.664H84.2066L84.36 125.682H88.4263C88.4877 125.338 88.4716 125.032 88.3781 124.767C88.2847 124.498 88.124 124.286 87.8961 124.131C87.6712 123.976 87.3878 123.899 87.0461 123.899C86.6955 123.899 86.3683 123.991 86.0645 124.175C85.7607 124.359 85.5066 124.594 85.3021 124.881C85.1005 125.164 84.9734 125.456 84.9208 125.757L84.7675 126.655C84.6915 127.146 84.7047 127.54 84.8069 127.838C84.9121 128.136 85.0961 128.352 85.359 128.487C85.6219 128.621 85.9506 128.688 86.345 128.688C86.5991 128.688 86.8343 128.653 87.0504 128.583C87.2695 128.51 87.4638 128.404 87.6332 128.263C87.8027 128.12 87.9443 127.942 88.0583 127.729L89.2589 127.952C89.0982 128.317 88.8674 128.637 88.5666 128.912C88.2657 129.183 87.9107 129.395 87.5018 129.547C87.0957 129.696 86.6458 129.771 86.1522 129.771ZM96.4287 124.547L95.2062 124.758C95.1799 124.603 95.1258 124.457 95.044 124.32C94.9652 124.182 94.8439 124.071 94.6803 123.987C94.5168 123.899 94.2991 123.855 94.0275 123.855C93.6506 123.855 93.3205 123.941 93.0372 124.114C92.7567 124.286 92.596 124.505 92.5551 124.771C92.5172 124.987 92.5683 125.162 92.7085 125.297C92.8487 125.428 93.0956 125.538 93.449 125.625L94.4832 125.871C95.0791 126.014 95.5056 126.237 95.7627 126.541C96.0227 126.842 96.1132 127.234 96.0343 127.716C95.9672 128.116 95.7919 128.471 95.5085 128.78C95.2281 129.09 94.8688 129.332 94.4306 129.508C93.9924 129.683 93.5045 129.771 92.967 129.771C92.2017 129.771 91.6057 129.609 91.1792 129.284C90.7527 128.96 90.5336 128.501 90.522 127.908L91.819 127.716C91.8424 128.046 91.9607 128.295 92.1739 128.465C92.3901 128.631 92.6895 128.715 93.0722 128.715C93.5104 128.718 93.877 128.626 94.1721 128.439C94.4671 128.252 94.6351 128.025 94.676 127.759C94.711 127.552 94.6643 127.38 94.5357 127.242C94.4101 127.105 94.1881 127 93.8697 126.927L92.783 126.677C92.1754 126.534 91.746 126.303 91.4947 125.985C91.2435 125.666 91.1588 125.266 91.2406 124.784C91.3049 124.39 91.4714 124.046 91.7401 123.754C92.0118 123.459 92.355 123.23 92.7699 123.066C93.1847 122.9 93.6433 122.817 94.1458 122.817C94.879 122.817 95.4296 122.974 95.7977 123.29C96.1658 123.602 96.3761 124.022 96.4287 124.547ZM106.31 124.547L105.087 124.758C105.061 124.603 105.007 124.457 104.925 124.32C104.846 124.182 104.725 124.071 104.561 123.987C104.398 123.899 104.18 123.855 103.909 123.855C103.532 123.855 103.202 123.941 102.918 124.114C102.638 124.286 102.477 124.505 102.436 124.771C102.398 124.987 102.449 125.162 102.59 125.297C102.73 125.428 102.977 125.538 103.33 125.625L104.364 125.871C104.96 126.014 105.387 126.237 105.644 126.541C105.904 126.842 105.994 127.234 105.915 127.716C105.848 128.116 105.673 128.471 105.39 128.78C105.109 129.09 104.75 129.332 104.312 129.508C103.873 129.683 103.386 129.771 102.848 129.771C102.083 129.771 101.487 129.609 101.06 129.284C100.634 128.96 100.415 128.501 100.403 127.908L101.7 127.716C101.723 128.046 101.842 128.295 102.055 128.465C102.271 128.631 102.571 128.715 102.953 128.715C103.391 128.718 103.758 128.626 104.053 128.439C104.348 128.252 104.516 128.025 104.557 127.759C104.592 127.552 104.545 127.38 104.417 127.242C104.291 127.105 104.069 127 103.751 126.927L102.664 126.677C102.056 126.534 101.627 126.303 101.376 125.985C101.125 125.666 101.04 125.266 101.122 124.784C101.186 124.39 101.352 124.046 101.621 123.754C101.893 123.459 102.236 123.23 102.651 123.066C103.066 122.9 103.524 122.817 104.027 122.817C104.76 122.817 105.311 122.974 105.679 123.29C106.047 123.602 106.257 124.022 106.31 124.547ZM109.897 129.771C109.258 129.771 108.723 129.625 108.294 129.332C107.864 129.037 107.562 128.626 107.387 128.097C107.214 127.565 107.185 126.947 107.299 126.243C107.41 125.554 107.633 124.952 107.969 124.438C108.308 123.924 108.732 123.525 109.24 123.242C109.751 122.958 110.32 122.817 110.945 122.817C111.584 122.817 112.118 122.964 112.544 123.259C112.974 123.554 113.276 123.968 113.451 124.499C113.626 125.031 113.657 125.65 113.543 126.357C113.432 127.041 113.206 127.64 112.864 128.154C112.525 128.665 112.102 129.062 111.593 129.346C111.085 129.629 110.52 129.771 109.897 129.771ZM109.972 128.671C110.393 128.671 110.759 128.56 111.072 128.338C111.387 128.116 111.644 127.821 111.843 127.453C112.042 127.085 112.177 126.681 112.251 126.243C112.318 125.82 112.316 125.433 112.246 125.082C112.179 124.729 112.033 124.445 111.808 124.232C111.583 124.019 111.27 123.912 110.87 123.912C110.45 123.912 110.08 124.025 109.762 124.25C109.446 124.472 109.189 124.768 108.99 125.139C108.795 125.51 108.662 125.915 108.592 126.353C108.524 126.773 108.524 127.161 108.592 127.514C108.659 127.865 108.805 128.145 109.03 128.355C109.255 128.566 109.569 128.671 109.972 128.671ZM114.467 129.635L115.588 122.904H116.899L115.777 129.635H114.467ZM116.517 121.853C116.289 121.853 116.097 121.777 115.939 121.625C115.784 121.47 115.713 121.286 115.724 121.073C115.736 120.857 115.826 120.672 115.996 120.521C116.165 120.366 116.363 120.288 116.587 120.288C116.815 120.288 117.007 120.366 117.161 120.521C117.316 120.672 117.389 120.857 117.381 121.073C117.369 121.286 117.278 121.47 117.109 121.625C116.942 121.777 116.745 121.853 116.517 121.853ZM119.511 125.639L118.854 129.635H117.544L118.666 122.904H119.923L119.739 124H119.822C120.036 123.64 120.326 123.354 120.694 123.141C121.065 122.925 121.504 122.817 122.009 122.817C122.465 122.817 122.847 122.913 123.157 123.106C123.47 123.296 123.69 123.579 123.819 123.956C123.95 124.333 123.971 124.799 123.88 125.354L123.161 129.635H121.851L122.539 125.511C122.618 125.024 122.554 124.642 122.346 124.368C122.142 124.09 121.816 123.952 121.369 123.952C121.065 123.952 120.783 124.017 120.523 124.149C120.266 124.28 120.049 124.473 119.871 124.727C119.695 124.978 119.576 125.282 119.511 125.639ZM130.808 124.547L129.585 124.758C129.559 124.603 129.505 124.457 129.423 124.32C129.344 124.182 129.223 124.071 129.059 123.987C128.896 123.899 128.678 123.855 128.406 123.855C128.03 123.855 127.699 123.941 127.416 124.114C127.136 124.286 126.975 124.505 126.934 124.771C126.896 124.987 126.947 125.162 127.087 125.297C127.228 125.428 127.475 125.538 127.828 125.625L128.862 125.871C129.458 126.014 129.885 126.237 130.142 126.541C130.402 126.842 130.492 127.234 130.413 127.716C130.346 128.116 130.171 128.471 129.887 128.78C129.607 129.09 129.248 129.332 128.81 129.508C128.371 129.683 127.884 129.771 127.346 129.771C126.581 129.771 125.985 129.609 125.558 129.284C125.132 128.96 124.913 128.501 124.901 127.908L126.198 127.716C126.221 128.046 126.34 128.295 126.553 128.465C126.769 128.631 127.068 128.715 127.451 128.715C127.889 128.718 128.256 128.626 128.551 128.439C128.846 128.252 129.014 128.025 129.055 127.759C129.09 127.552 129.043 127.38 128.915 127.242C128.789 127.105 128.567 127 128.249 126.927L127.162 126.677C126.554 126.534 126.125 126.303 125.874 125.985C125.622 125.666 125.538 125.266 125.62 124.784C125.684 124.39 125.85 124.046 126.119 123.754C126.391 123.459 126.734 123.23 127.149 123.066C127.564 122.9 128.022 122.817 128.525 122.817C129.258 122.817 129.809 122.974 130.177 123.29C130.545 123.602 130.755 124.022 130.808 124.547ZM137.306 129.766C136.76 129.766 136.297 129.628 135.917 129.35C135.54 129.07 135.273 128.671 135.115 128.154C134.96 127.634 134.943 127.01 135.062 126.283C135.185 125.555 135.412 124.933 135.742 124.416C136.072 123.899 136.472 123.503 136.942 123.229C137.413 122.954 137.919 122.817 138.463 122.817C138.881 122.817 139.205 122.887 139.436 123.027C139.669 123.164 139.842 123.325 139.953 123.509C140.064 123.693 140.147 123.855 140.202 123.995H140.277L140.833 120.661H142.144L140.654 129.635H139.374L139.554 128.588H139.444C139.342 128.731 139.2 128.894 139.019 129.078C138.841 129.262 138.613 129.423 138.336 129.56C138.058 129.698 137.715 129.766 137.306 129.766ZM137.749 128.649C138.125 128.649 138.463 128.55 138.761 128.351C139.062 128.149 139.311 127.87 139.51 127.514C139.712 127.158 139.852 126.743 139.931 126.27C140.01 125.802 140.008 125.393 139.926 125.043C139.845 124.692 139.687 124.419 139.453 124.223C139.219 124.028 138.911 123.93 138.529 123.93C138.134 123.93 137.791 124.032 137.499 124.236C137.207 124.441 136.967 124.72 136.78 125.073C136.596 125.427 136.468 125.826 136.395 126.27C136.319 126.719 136.316 127.124 136.386 127.483C136.456 127.843 136.603 128.127 136.828 128.338C137.053 128.545 137.36 128.649 137.749 128.649ZM145.403 129.771C144.742 129.771 144.196 129.629 143.764 129.346C143.334 129.059 143.033 128.658 142.861 128.141C142.689 127.621 142.661 127.012 142.778 126.313C142.892 125.624 143.121 125.016 143.466 124.491C143.81 123.965 144.24 123.554 144.754 123.259C145.271 122.964 145.842 122.817 146.467 122.817C146.847 122.817 147.205 122.879 147.541 123.005C147.88 123.131 148.167 123.328 148.404 123.597C148.641 123.865 148.804 124.214 148.895 124.644C148.988 125.07 148.985 125.589 148.886 126.199L148.812 126.664H143.457L143.61 125.682H147.677C147.738 125.338 147.722 125.032 147.629 124.767C147.535 124.498 147.374 124.286 147.147 124.131C146.922 123.976 146.638 123.899 146.296 123.899C145.946 123.899 145.619 123.991 145.315 124.175C145.011 124.359 144.757 124.594 144.552 124.881C144.351 125.164 144.224 125.456 144.171 125.757L144.018 126.655C143.942 127.146 143.955 127.54 144.057 127.838C144.162 128.136 144.347 128.352 144.609 128.487C144.872 128.621 145.201 128.688 145.595 128.688C145.849 128.688 146.085 128.653 146.301 128.583C146.52 128.51 146.714 128.404 146.884 128.263C147.053 128.12 147.195 127.942 147.309 127.729L148.509 127.952C148.349 128.317 148.118 128.637 147.817 128.912C147.516 129.183 147.161 129.395 146.752 129.547C146.346 129.696 145.896 129.771 145.403 129.771ZM157.174 132.159L157.762 128.588H157.687C157.585 128.731 157.445 128.894 157.266 129.078C157.088 129.262 156.859 129.423 156.578 129.56C156.301 129.698 155.958 129.766 155.549 129.766C155.002 129.766 154.541 129.628 154.164 129.35C153.787 129.07 153.52 128.671 153.362 128.154C153.207 127.634 153.19 127.01 153.31 126.283C153.429 125.555 153.654 124.933 153.984 124.416C154.315 123.899 154.715 123.503 155.185 123.229C155.655 122.954 156.162 122.817 156.706 122.817C157.123 122.817 157.448 122.887 157.678 123.027C157.912 123.164 158.084 123.325 158.195 123.509C158.306 123.693 158.39 123.855 158.445 123.995H158.55L158.739 122.904H160.018L158.485 132.159H157.174ZM156.018 128.649C156.397 128.649 156.735 128.55 157.03 128.351C157.325 128.149 157.569 127.87 157.762 127.514C157.957 127.158 158.095 126.743 158.173 126.27C158.252 125.802 158.252 125.393 158.173 125.043C158.098 124.692 157.946 124.419 157.718 124.223C157.49 124.028 157.186 123.93 156.806 123.93C156.409 123.93 156.061 124.032 155.763 124.236C155.465 124.441 155.222 124.72 155.032 125.073C154.842 125.427 154.709 125.826 154.633 126.27C154.56 126.719 154.561 127.124 154.637 127.483C154.713 127.843 154.865 128.127 155.093 128.338C155.324 128.545 155.632 128.649 156.018 128.649ZM165.395 126.844L166.052 122.904H167.367L166.245 129.635H164.957L165.154 128.469H165.084C164.873 128.829 164.575 129.128 164.19 129.368C163.807 129.604 163.363 129.722 162.858 129.722C162.425 129.722 162.059 129.628 161.758 129.438C161.46 129.245 161.248 128.96 161.122 128.583C160.997 128.206 160.979 127.74 161.07 127.185L161.789 122.904H163.099L162.411 127.028C162.338 127.486 162.406 127.851 162.617 128.123C162.827 128.395 163.134 128.531 163.537 128.531C163.782 128.531 164.036 128.469 164.299 128.347C164.562 128.224 164.794 128.038 164.996 127.79C165.201 127.542 165.333 127.226 165.395 126.844ZM169.946 129.784C169.52 129.784 169.147 129.705 168.829 129.547C168.511 129.387 168.275 129.154 168.124 128.85C167.972 128.547 167.932 128.174 168.005 127.733C168.07 127.353 168.195 127.041 168.382 126.795C168.572 126.55 168.803 126.356 169.074 126.213C169.346 126.067 169.641 125.957 169.96 125.884C170.278 125.811 170.599 125.757 170.924 125.722C171.333 125.675 171.664 125.636 171.918 125.604C172.175 125.571 172.368 125.522 172.497 125.455C172.625 125.384 172.703 125.27 172.729 125.113V125.082C172.79 124.702 172.735 124.407 172.562 124.197C172.393 123.984 172.098 123.877 171.677 123.877C171.239 123.877 170.871 123.973 170.573 124.166C170.278 124.359 170.06 124.575 169.92 124.815L168.746 124.534C168.956 124.125 169.223 123.795 169.548 123.544C169.875 123.29 170.233 123.106 170.621 122.992C171.01 122.875 171.407 122.817 171.813 122.817C172.082 122.817 172.361 122.849 172.65 122.913C172.939 122.974 173.202 123.088 173.439 123.255C173.678 123.421 173.857 123.659 173.973 123.969C174.09 124.276 174.108 124.675 174.026 125.165L173.285 129.635H172.006L172.164 128.715H172.111C172 128.884 171.845 129.051 171.647 129.214C171.451 129.378 171.211 129.514 170.928 129.622C170.645 129.73 170.317 129.784 169.946 129.784ZM170.393 128.732C170.759 128.732 171.081 128.661 171.362 128.517C171.645 128.374 171.874 128.187 172.05 127.957C172.225 127.723 172.335 127.473 172.378 127.207L172.523 126.34C172.467 126.386 172.37 126.429 172.229 126.467C172.092 126.505 171.937 126.538 171.765 126.568C171.593 126.597 171.423 126.622 171.257 126.642C171.093 126.662 170.957 126.681 170.849 126.699C170.592 126.731 170.351 126.785 170.126 126.861C169.904 126.937 169.719 127.047 169.57 127.19C169.421 127.33 169.327 127.517 169.289 127.751C169.237 128.075 169.314 128.32 169.521 128.487C169.732 128.65 170.022 128.732 170.393 128.732ZM177.83 120.661L176.341 129.635H175.03L176.52 120.661H177.83ZM178.103 129.635L179.225 122.904H180.535L179.413 129.635H178.103ZM180.154 121.853C179.926 121.853 179.733 121.777 179.576 121.625C179.421 121.47 179.349 121.286 179.361 121.073C179.373 120.857 179.463 120.672 179.633 120.521C179.802 120.366 179.999 120.288 180.224 120.288C180.452 120.288 180.643 120.366 180.798 120.521C180.953 120.672 181.026 120.857 181.017 121.073C181.006 121.286 180.915 121.47 180.746 121.625C180.579 121.777 180.382 121.853 180.154 121.853ZM185.44 122.904L185.269 123.956H181.592L181.763 122.904H185.44ZM183.012 121.292H184.322L183.262 127.659C183.221 127.913 183.228 128.104 183.284 128.233C183.339 128.358 183.424 128.444 183.538 128.491C183.655 128.535 183.785 128.557 183.928 128.557C184.033 128.557 184.125 128.55 184.204 128.535C184.283 128.52 184.346 128.509 184.392 128.5L184.462 129.582C184.375 129.611 184.256 129.641 184.108 129.67C183.961 129.702 183.783 129.72 183.573 129.722C183.228 129.728 182.917 129.667 182.64 129.538C182.362 129.407 182.155 129.208 182.017 128.942C181.88 128.674 181.846 128.336 181.917 127.93L183.012 121.292ZM188.578 129.771C187.918 129.771 187.372 129.629 186.939 129.346C186.51 129.059 186.209 128.658 186.037 128.141C185.864 127.621 185.837 127.012 185.953 126.313C186.067 125.624 186.297 125.016 186.641 124.491C186.986 123.965 187.415 123.554 187.93 123.259C188.447 122.964 189.018 122.817 189.643 122.817C190.023 122.817 190.381 122.879 190.716 123.005C191.055 123.131 191.343 123.328 191.58 123.597C191.816 123.865 191.98 124.214 192.07 124.644C192.164 125.07 192.161 125.589 192.062 126.199L191.987 126.664H186.633L186.786 125.682H190.852C190.914 125.338 190.898 125.032 190.804 124.767C190.711 124.498 190.55 124.286 190.322 124.131C190.097 123.976 189.814 123.899 189.472 123.899C189.121 123.899 188.794 123.991 188.49 124.175C188.187 124.359 187.933 124.594 187.728 124.881C187.526 125.164 187.399 125.456 187.347 125.757L187.193 126.655C187.117 127.146 187.131 127.54 187.233 127.838C187.338 128.136 187.522 128.352 187.785 128.487C188.048 128.621 188.377 128.688 188.771 128.688C189.025 128.688 189.26 128.653 189.476 128.583C189.695 128.51 189.89 128.404 190.059 128.263C190.229 128.12 190.37 127.942 190.484 127.729L191.685 127.952C191.524 128.317 191.293 128.637 190.993 128.912C190.692 129.183 190.337 129.395 189.928 129.547C189.522 129.696 189.072 129.771 188.578 129.771ZM189.17 122.006L190.528 119.986H191.908L190.221 122.006H189.17ZM198.843 120.661L198.711 121.502C198.67 121.75 198.58 122.012 198.439 122.286C198.302 122.558 198.128 122.82 197.918 123.071C197.711 123.322 197.481 123.538 197.23 123.719L196.652 123.255C196.865 123.004 197.058 122.736 197.23 122.453C197.402 122.17 197.518 121.857 197.576 121.515L197.721 120.661H198.843ZM201.073 120.661L200.942 121.502C200.901 121.75 200.81 122.012 200.67 122.286C200.533 122.558 200.359 122.82 200.148 123.071C199.941 123.322 199.71 123.538 199.456 123.719L198.878 123.255C199.091 123.004 199.284 122.736 199.456 122.453C199.631 122.17 199.748 121.857 199.807 121.515L199.951 120.661H201.073Z" fill="#176B4D"/>
</svg>
