<svg width="180" height="48" viewBox="0 0 180 48" fill="none" xmlns="http://www.w3.org/2000/svg">
<path fill-rule="evenodd" clip-rule="evenodd" d="M27.1899 17.5698C27.1899 15.8062 25.7602 14.3765 23.9966 14.3765C22.233 14.3765 20.8033 15.8062 20.8033 17.5698V20.7631C20.8033 21.752 20.8033 22.2464 20.8688 22.6601C21.2295 24.9375 23.0156 26.7235 25.293 27.0842C25.7066 27.1497 26.2011 27.1497 27.1899 27.1497H30.3832C32.1468 27.1497 33.5766 25.72 33.5766 23.9564C33.5766 22.1928 32.1468 20.7631 30.3832 20.7631H27.6689C27.4044 20.7631 27.1899 20.5487 27.1899 20.2841V17.5698Z" fill="#176B4D"/>
<g style="mix-blend-mode:darken">
<path fill-rule="evenodd" clip-rule="evenodd" d="M20.7631 30.3832C20.7631 32.1468 22.1929 33.5765 23.9564 33.5765C25.72 33.5765 27.1497 32.1468 27.1497 30.3832V27.2892C27.1497 26.3926 27.1497 25.9443 27.0958 25.5685C26.7603 23.2291 24.9224 21.3912 22.583 21.0557C22.2072 21.0018 21.7589 21.0018 20.8624 21.0018H17.5202C15.784 21.0018 14.3765 22.4093 14.3765 24.1455C14.3765 25.8817 15.784 27.2891 17.5202 27.2891H20.2842C20.5487 27.2891 20.7631 27.5036 20.7631 27.7681V30.3832Z" fill="#EA4335"/>
</g>
<path d="M18.332 2.91106C17.9856 1.61837 16.651 0.839807 15.3994 1.3135C11.3985 2.82766 7.85512 5.38012 5.14489 8.72695C2.43467 12.0738 0.674681 16.0705 0.0254498 20.2988C-0.177656 21.6215 0.861372 22.7651 2.19782 22.8351C3.53426 22.9052 4.65908 21.8735 4.89519 20.5562C5.46976 17.3508 6.84546 14.3279 8.91118 11.7769C10.977 9.22589 13.6478 7.25173 16.6637 6.0233C17.9031 5.51846 18.6784 4.20373 18.332 2.91106Z" fill="#EA4335"/>
<path d="M4.87584 11.331C6.75894 11.331 8.2855 9.80447 8.2855 7.92137C8.2855 6.03827 6.75894 4.51172 4.87584 4.51172C2.99274 4.51172 1.46619 6.03827 1.46619 7.92137C1.46619 9.80447 2.99274 11.331 4.87584 11.331Z" fill="#EA4335" stroke="white" stroke-width="1.33191"/>
<path d="M45.0419 18.332C46.3346 17.9856 47.1132 16.651 46.6395 15.3994C45.1253 11.3985 42.5729 7.85512 39.226 5.1449C35.8791 2.43467 31.8825 0.674681 27.6542 0.0254498C26.3314 -0.177656 25.1879 0.861372 25.1179 2.19782C25.0478 3.53426 26.0795 4.65908 27.3968 4.89519C30.6022 5.46976 33.6251 6.84546 36.1761 8.91118C38.7271 10.977 40.7013 13.6478 41.9297 16.6637C42.4345 17.9031 43.7493 18.6784 45.0419 18.332Z" fill="#176B4D"/>
<path d="M36.622 4.87584C36.622 6.75894 38.1485 8.2855 40.0316 8.2855C41.9147 8.2855 43.4413 6.75894 43.4413 4.87584C43.4413 2.99274 41.9147 1.46619 40.0316 1.46619C38.1485 1.46619 36.622 2.99274 36.622 4.87584Z" fill="#176B4D" stroke="white" stroke-width="1.33191"/>
<path d="M29.621 45.0419C29.9674 46.3346 31.3019 47.1132 32.5536 46.6395C36.5545 45.1253 40.0979 42.5729 42.8081 39.226C45.5183 35.8791 47.2783 31.8825 47.9276 27.6542C48.1306 26.3314 47.0916 25.1879 45.7552 25.1179C44.4187 25.0478 43.2939 26.0795 43.0578 27.3968C42.4832 30.6022 41.1075 33.6251 39.0418 36.1761C36.976 38.7271 34.3052 40.7013 31.2892 41.9297C30.0498 42.4345 29.2746 43.7493 29.621 45.0419Z" fill="#EA4335"/>
<path d="M43.0772 36.622C41.1941 36.622 39.6675 38.1486 39.6675 40.0317C39.6675 41.9148 41.1941 43.4413 43.0772 43.4413C44.9603 43.4413 46.4868 41.9148 46.4868 40.0317C46.4868 38.1486 44.9603 36.622 43.0772 36.622Z" fill="#EA4335" stroke="white" stroke-width="1.33191"/>
<path d="M2.91106 29.621C1.61837 29.9674 0.839807 31.302 1.3135 32.5536C2.82766 36.5545 5.38012 40.0979 8.72695 42.8081C12.0738 45.5184 16.0705 47.2783 20.2988 47.9276C21.6215 48.1307 22.7651 47.0916 22.8351 45.7552C22.9052 44.4187 21.8735 43.2939 20.5562 43.0578C17.3508 42.4832 14.3279 41.1075 11.7769 39.0418C9.22589 36.976 7.25173 34.3052 6.0233 31.2892C5.51846 30.0498 4.20373 29.2746 2.91106 29.621Z" fill="#176B4D"/>
<path d="M11.331 43.0771C11.331 41.194 9.80441 39.6674 7.92131 39.6674C6.03821 39.6674 4.51166 41.194 4.51166 43.0771C4.51166 44.9602 6.03821 46.4868 7.92131 46.4868C9.80441 46.4868 11.331 44.9602 11.331 43.0771Z" fill="#176B4D" stroke="white" stroke-width="1.33191"/>
<path d="M60.6195 16H58.5158V10.0655H60.6369C61.2339 10.0655 61.7477 10.1843 62.1785 10.4219C62.6093 10.6576 62.9406 10.9966 63.1724 11.439C63.4062 11.8814 63.5231 12.4107 63.5231 13.0269C63.5231 13.6451 63.4062 14.1764 63.1724 14.6207C62.9406 15.065 62.6074 15.406 62.1727 15.6436C61.74 15.8812 61.2223 16 60.6195 16ZM59.7705 14.9249H60.5674C60.9383 14.9249 61.2503 14.8593 61.5034 14.7279C61.7584 14.5946 61.9496 14.3889 62.0771 14.1107C62.2065 13.8306 62.2712 13.4693 62.2712 13.0269C62.2712 12.5884 62.2065 12.2301 62.0771 11.9519C61.9496 11.6737 61.7593 11.4689 61.5062 11.3376C61.2532 11.2062 60.9412 11.1405 60.5703 11.1405H59.7705V14.9249ZM64.4293 16V11.5491H65.6638V16H64.4293ZM65.0494 10.9753C64.8659 10.9753 64.7085 10.9145 64.5771 10.7928C64.4477 10.6691 64.383 10.5214 64.383 10.3494C64.383 10.1794 64.4477 10.0336 64.5771 9.91188C64.7085 9.78824 64.8659 9.72642 65.0494 9.72642C65.233 9.72642 65.3894 9.78824 65.5189 9.91188C65.6502 10.0336 65.7159 10.1794 65.7159 10.3494C65.7159 10.5214 65.6502 10.6691 65.5189 10.7928C65.3894 10.9145 65.233 10.9753 65.0494 10.9753ZM66.6526 16V11.5491H67.8494V12.3257H67.8957C67.9769 12.0494 68.1131 11.8408 68.3043 11.6998C68.4956 11.5568 68.7158 11.4853 68.965 11.4853C69.0268 11.4853 69.0935 11.4892 69.1649 11.4969C69.2364 11.5047 69.2992 11.5153 69.3533 11.5288V12.6241C69.2953 12.6068 69.2152 12.5913 69.1128 12.5778C69.0104 12.5643 68.9167 12.5575 68.8317 12.5575C68.6501 12.5575 68.4878 12.5971 68.3449 12.6763C68.2039 12.7536 68.0918 12.8618 68.0087 13.0009C67.9276 13.1399 67.887 13.3003 67.887 13.4819V16H66.6526ZM71.8127 16.0869C71.3549 16.0869 70.9608 15.9942 70.6305 15.8088C70.3021 15.6214 70.049 15.3567 69.8713 15.0148C69.6935 14.6709 69.6047 14.2643 69.6047 13.7948C69.6047 13.337 69.6935 12.9352 69.8713 12.5894C70.049 12.2436 70.2992 11.9741 70.6218 11.7809C70.9463 11.5877 71.3269 11.4911 71.7635 11.4911C72.0571 11.4911 72.3305 11.5385 72.5835 11.6331C72.8385 11.7259 73.0607 11.8659 73.25 12.0533C73.4413 12.2407 73.59 12.4764 73.6963 12.7603C73.8025 13.0424 73.8556 13.3727 73.8556 13.7514V14.0904H70.0973V13.3254H72.6937C72.6937 13.1477 72.655 12.9902 72.5777 12.8531C72.5005 12.7159 72.3933 12.6087 72.2561 12.5314C72.1209 12.4522 71.9634 12.4126 71.7838 12.4126C71.5964 12.4126 71.4302 12.4561 71.2854 12.543C71.1424 12.628 71.0304 12.743 70.9492 12.8878C70.8681 13.0308 70.8265 13.1902 70.8246 13.366V14.0933C70.8246 14.3135 70.8652 14.5038 70.9463 14.6641C71.0294 14.8245 71.1463 14.9481 71.2969 15.0351C71.4476 15.122 71.6263 15.1655 71.833 15.1655C71.9702 15.1655 72.0958 15.1461 72.2097 15.1075C72.3237 15.0689 72.4213 15.0109 72.5024 14.9336C72.5835 14.8564 72.6454 14.7617 72.6879 14.6497L73.8296 14.725C73.7716 14.9993 73.6528 15.2389 73.4731 15.4436C73.2954 15.6465 73.0655 15.8049 72.7835 15.9189C72.5034 16.0309 72.1798 16.0869 71.8127 16.0869ZM76.6722 16.0869C76.2163 16.0869 75.8242 15.9903 75.4958 15.7972C75.1693 15.602 74.9181 15.3316 74.7423 14.9858C74.5685 14.64 74.4815 14.242 74.4815 13.7919C74.4815 13.336 74.5694 12.9361 74.7452 12.5923C74.923 12.2465 75.1751 11.977 75.5015 11.7838C75.828 11.5887 76.2163 11.4911 76.6664 11.4911C77.0547 11.4911 77.3947 11.5616 77.6864 11.7027C77.9781 11.8437 78.209 12.0417 78.379 12.2967C78.549 12.5517 78.6427 12.8511 78.6601 13.195H77.4952C77.4623 12.9728 77.3754 12.7941 77.2344 12.6589C77.0953 12.5218 76.9127 12.4532 76.6867 12.4532C76.4955 12.4532 76.3284 12.5053 76.1854 12.6097C76.0444 12.712 75.9343 12.8618 75.8551 13.0588C75.7759 13.2559 75.7363 13.4944 75.7363 13.7745C75.7363 14.0585 75.7749 14.3 75.8522 14.499C75.9314 14.698 76.0425 14.8496 76.1854 14.9539C76.3284 15.0582 76.4955 15.1104 76.6867 15.1104C76.8277 15.1104 76.9543 15.0814 77.0663 15.0235C77.1803 14.9655 77.274 14.8815 77.3474 14.7714C77.4227 14.6593 77.472 14.5251 77.4952 14.3686H78.6601C78.6408 14.7086 78.548 15.008 78.3819 15.2669C78.2177 15.5238 77.9907 15.7247 77.7009 15.8696C77.4111 16.0145 77.0683 16.0869 76.6722 16.0869ZM81.8179 11.5491V12.4764H79.1375V11.5491H81.8179ZM79.746 10.4827H80.9804V14.6323C80.9804 14.7462 80.9978 14.8351 81.0326 14.8989C81.0674 14.9607 81.1157 15.0041 81.1775 15.0293C81.2412 15.0544 81.3146 15.0669 81.3977 15.0669C81.4557 15.0669 81.5136 15.0621 81.5716 15.0524C81.6295 15.0409 81.6739 15.0322 81.7049 15.0264L81.899 15.9449C81.8372 15.9643 81.7503 15.9865 81.6382 16.0116C81.5262 16.0386 81.39 16.0551 81.2296 16.0609C80.9321 16.0724 80.6713 16.0328 80.4472 15.942C80.2251 15.8512 80.0522 15.7102 79.9285 15.519C79.8049 15.3277 79.7441 15.0862 79.746 14.7945V10.4827ZM82.622 16V11.5491H83.8564V16H82.622ZM83.2421 10.9753C83.0586 10.9753 82.9011 10.9145 82.7698 10.7928C82.6403 10.6691 82.5756 10.5214 82.5756 10.3494C82.5756 10.1794 82.6403 10.0336 82.7698 9.91188C82.9011 9.78824 83.0586 9.72642 83.2421 9.72642C83.4256 9.72642 83.5821 9.78824 83.7115 9.91188C83.8429 10.0336 83.9086 10.1794 83.9086 10.3494C83.9086 10.5214 83.8429 10.6691 83.7115 10.7928C83.5821 10.9145 83.4256 10.9753 83.2421 10.9753ZM86.8563 16.0869C86.4062 16.0869 86.0169 15.9913 85.6885 15.8001C85.362 15.6069 85.1099 15.3384 84.9322 14.9945C84.7545 14.6487 84.6656 14.2478 84.6656 13.7919C84.6656 13.3322 84.7545 12.9303 84.9322 12.5865C85.1099 12.2407 85.362 11.9722 85.6885 11.7809C86.0169 11.5877 86.4062 11.4911 86.8563 11.4911C87.3064 11.4911 87.6947 11.5877 88.0212 11.7809C88.3496 11.9722 88.6027 12.2407 88.7804 12.5865C88.9581 12.9303 89.047 13.3322 89.047 13.7919C89.047 14.2478 88.9581 14.6487 88.7804 14.9945C88.6027 15.3384 88.3496 15.6069 88.0212 15.8001C87.6947 15.9913 87.3064 16.0869 86.8563 16.0869ZM86.8621 15.1307C87.0669 15.1307 87.2378 15.0727 87.375 14.9568C87.5121 14.839 87.6155 14.6786 87.685 14.4758C87.7565 14.273 87.7923 14.0421 87.7923 13.7832C87.7923 13.5244 87.7565 13.2935 87.685 13.0907C87.6155 12.8878 87.5121 12.7275 87.375 12.6097C87.2378 12.4918 87.0669 12.4329 86.8621 12.4329C86.6554 12.4329 86.4815 12.4918 86.3405 12.6097C86.2014 12.7275 86.0961 12.8878 86.0246 13.0907C85.9551 13.2935 85.9203 13.5244 85.9203 13.7832C85.9203 14.0421 85.9551 14.273 86.0246 14.4758C86.0961 14.6786 86.2014 14.839 86.3405 14.9568C86.4815 15.0727 86.6554 15.1307 86.8621 15.1307ZM91.0841 13.4268V16H89.8496V11.5491H91.0261V12.3344H91.0783C91.1768 12.0755 91.342 11.8707 91.5738 11.7201C91.8056 11.5674 92.0867 11.4911 92.417 11.4911C92.7261 11.4911 92.9956 11.5588 93.2255 11.694C93.4554 11.8292 93.6341 12.0224 93.7616 12.2735C93.8891 12.5227 93.9528 12.8202 93.9528 13.166V16H92.7184V13.3863C92.7203 13.1139 92.6508 12.9014 92.5098 12.7488C92.3687 12.5942 92.1746 12.5169 91.9273 12.5169C91.7612 12.5169 91.6144 12.5527 91.4869 12.6241C91.3613 12.6956 91.2628 12.7999 91.1913 12.9371C91.1217 13.0723 91.086 13.2356 91.0841 13.4268ZM100.773 11.9838C100.732 11.8427 100.675 11.7181 100.602 11.6099C100.528 11.4998 100.438 11.4071 100.332 11.3318C100.228 11.2545 100.108 11.1956 99.9729 11.155C99.8396 11.1144 99.6918 11.0941 99.5295 11.0941C99.2262 11.0941 98.9596 11.1695 98.7297 11.3202C98.5018 11.4709 98.324 11.6901 98.1965 11.978C98.069 12.2639 98.0053 12.6135 98.0053 13.0269C98.0053 13.4403 98.0681 13.7919 98.1936 14.0817C98.3192 14.3715 98.4969 14.5927 98.7268 14.7453C98.9567 14.896 99.2281 14.9713 99.5411 14.9713C99.8251 14.9713 100.068 14.9211 100.268 14.8206C100.471 14.7182 100.626 14.5743 100.732 14.3889C100.84 14.2034 100.894 13.9841 100.894 13.7311L101.149 13.7688H99.6193V12.8241H102.103V13.5717C102.103 14.0933 101.993 14.5415 101.772 14.9163C101.552 15.2891 101.249 15.5769 100.862 15.7798C100.476 15.9807 100.034 16.0811 99.5353 16.0811C98.9789 16.0811 98.4902 15.9585 98.069 15.7131C97.6479 15.4659 97.3195 15.1152 97.0838 14.6613C96.8501 14.2053 96.7332 13.6644 96.7332 13.0385C96.7332 12.5575 96.8027 12.1286 96.9418 11.7519C97.0829 11.3733 97.2799 11.0526 97.533 10.7899C97.786 10.5272 98.0806 10.3272 98.4168 10.1901C98.7529 10.0529 99.1171 9.98432 99.5092 9.98432C99.8454 9.98432 100.158 10.0336 100.448 10.1321C100.738 10.2287 100.995 10.3659 101.219 10.5436C101.445 10.7213 101.629 10.9328 101.772 11.1782C101.915 11.4216 102.007 11.6901 102.048 11.9838H100.773ZM105.05 16.0869C104.593 16.0869 104.198 15.9942 103.868 15.8088C103.54 15.6214 103.287 15.3567 103.109 15.0148C102.931 14.6709 102.842 14.2643 102.842 13.7948C102.842 13.337 102.931 12.9352 103.109 12.5894C103.287 12.2436 103.537 11.9741 103.859 11.7809C104.184 11.5877 104.565 11.4911 105.001 11.4911C105.295 11.4911 105.568 11.5385 105.821 11.6331C106.076 11.7259 106.298 11.8659 106.488 12.0533C106.679 12.2407 106.828 12.4764 106.934 12.7603C107.04 13.0424 107.093 13.3727 107.093 13.7514V14.0904H103.335V13.3254H105.931C105.931 13.1477 105.893 12.9902 105.815 12.8531C105.738 12.7159 105.631 12.6087 105.494 12.5314C105.359 12.4522 105.201 12.4126 105.021 12.4126C104.834 12.4126 104.668 12.4561 104.523 12.543C104.38 12.628 104.268 12.743 104.187 12.8878C104.106 13.0308 104.064 13.1902 104.062 13.366V14.0933C104.062 14.3135 104.103 14.5038 104.184 14.6641C104.267 14.8245 104.384 14.9481 104.535 15.0351C104.685 15.122 104.864 15.1655 105.071 15.1655C105.208 15.1655 105.333 15.1461 105.447 15.1075C105.561 15.0689 105.659 15.0109 105.74 14.9336C105.821 14.8564 105.883 14.7617 105.926 14.6497L107.067 14.725C107.009 14.9993 106.89 15.2389 106.711 15.4436C106.533 15.6465 106.303 15.8049 106.021 15.9189C105.741 16.0309 105.417 16.0869 105.05 16.0869ZM104.529 10.9753L105.143 9.65688H106.285L105.401 10.9753H104.529ZM109.133 13.4268V16H107.899V11.5491H109.075V12.3344H109.127C109.226 12.0755 109.391 11.8707 109.623 11.7201C109.855 11.5674 110.136 11.4911 110.466 11.4911C110.775 11.4911 111.045 11.5588 111.275 11.694C111.505 11.8292 111.683 12.0224 111.811 12.2735C111.938 12.5227 112.002 12.8202 112.002 13.166V16H110.768V13.3863C110.77 13.1139 110.7 12.9014 110.559 12.7488C110.418 12.5942 110.224 12.5169 109.977 12.5169C109.81 12.5169 109.664 12.5527 109.536 12.6241C109.411 12.6956 109.312 12.7999 109.241 12.9371C109.171 13.0723 109.135 13.2356 109.133 13.4268ZM115.003 16.0869C114.546 16.0869 114.151 15.9942 113.821 15.8088C113.493 15.6214 113.24 15.3567 113.062 15.0148C112.884 14.6709 112.795 14.2643 112.795 13.7948C112.795 13.337 112.884 12.9352 113.062 12.5894C113.24 12.2436 113.49 11.9741 113.812 11.7809C114.137 11.5877 114.518 11.4911 114.954 11.4911C115.248 11.4911 115.521 11.5385 115.774 11.6331C116.029 11.7259 116.251 11.8659 116.441 12.0533C116.632 12.2407 116.781 12.4764 116.887 12.7603C116.993 13.0424 117.046 13.3727 117.046 13.7514V14.0904H113.288V13.3254H115.884C115.884 13.1477 115.846 12.9902 115.768 12.8531C115.691 12.7159 115.584 12.6087 115.447 12.5314C115.311 12.4522 115.154 12.4126 114.974 12.4126C114.787 12.4126 114.621 12.4561 114.476 12.543C114.333 12.628 114.221 12.743 114.14 12.8878C114.059 13.0308 114.017 13.1902 114.015 13.366V14.0933C114.015 14.3135 114.056 14.5038 114.137 14.6641C114.22 14.8245 114.337 14.9481 114.488 15.0351C114.638 15.122 114.817 15.1655 115.024 15.1655C115.161 15.1655 115.286 15.1461 115.4 15.1075C115.514 15.0689 115.612 15.0109 115.693 14.9336C115.774 14.8564 115.836 14.7617 115.878 14.6497L117.02 14.725C116.962 14.9993 116.843 15.2389 116.664 15.4436C116.486 15.6465 116.256 15.8049 115.974 15.9189C115.694 16.0309 115.37 16.0869 115.003 16.0869ZM114.482 10.9753L115.096 9.65688H116.238L115.354 10.9753H114.482ZM117.852 16V11.5491H119.049V12.3257H119.095C119.176 12.0494 119.312 11.8408 119.504 11.6998C119.695 11.5568 119.915 11.4853 120.164 11.4853C120.226 11.4853 120.293 11.4892 120.364 11.4969C120.436 11.5047 120.498 11.5153 120.553 11.5288V12.6241C120.495 12.6068 120.414 12.5913 120.312 12.5778C120.21 12.5643 120.116 12.5575 120.031 12.5575C119.849 12.5575 119.687 12.5971 119.544 12.6763C119.403 12.7536 119.291 12.8618 119.208 13.0009C119.127 13.1399 119.086 13.3003 119.086 13.4819V16H117.852ZM122.332 16.084C122.048 16.084 121.795 16.0348 121.573 15.9363C121.351 15.8358 121.175 15.688 121.046 15.4929C120.918 15.2959 120.855 15.0505 120.855 14.7569C120.855 14.5096 120.9 14.3019 120.991 14.1339C121.082 13.9658 121.205 13.8306 121.362 13.7282C121.518 13.6258 121.696 13.5485 121.895 13.4964C122.096 13.4442 122.306 13.4075 122.527 13.3863C122.785 13.3592 122.994 13.3341 123.152 13.3109C123.311 13.2858 123.426 13.2491 123.497 13.2008C123.569 13.1525 123.605 13.081 123.605 12.9864V12.969C123.605 12.7855 123.547 12.6435 123.431 12.543C123.317 12.4426 123.154 12.3923 122.944 12.3923C122.722 12.3923 122.545 12.4416 122.414 12.5401C122.282 12.6367 122.195 12.7584 122.153 12.9052L121.011 12.8125C121.069 12.542 121.183 12.3083 121.353 12.1113C121.523 11.9123 121.742 11.7597 122.011 11.6534C122.281 11.5452 122.594 11.4911 122.95 11.4911C123.197 11.4911 123.434 11.5201 123.66 11.5781C123.888 11.636 124.089 11.7259 124.265 11.8476C124.443 11.9693 124.583 12.1257 124.685 12.317C124.788 12.5063 124.839 12.7333 124.839 12.998V16H123.668V15.3828H123.634C123.562 15.5219 123.466 15.6445 123.347 15.7508C123.227 15.8551 123.083 15.9372 122.915 15.9971C122.747 16.0551 122.553 16.084 122.332 16.084ZM122.686 15.2321C122.868 15.2321 123.028 15.1964 123.167 15.1249C123.306 15.0515 123.415 14.953 123.494 14.8293C123.574 14.7057 123.613 14.5656 123.613 14.4091V13.9368C123.575 13.9619 123.521 13.9851 123.454 14.0064C123.388 14.0257 123.314 14.044 123.231 14.0614C123.148 14.0769 123.065 14.0914 122.982 14.1049C122.898 14.1165 122.823 14.1271 122.756 14.1368C122.611 14.158 122.484 14.1918 122.376 14.2382C122.268 14.2845 122.184 14.3473 122.124 14.4265C122.064 14.5038 122.034 14.6004 122.034 14.7163C122.034 14.8844 122.095 15.0128 122.217 15.1017C122.34 15.1886 122.497 15.2321 122.686 15.2321ZM127.031 10.0655V16H125.797V10.0655H127.031ZM130.048 16.0869C129.591 16.0869 129.196 15.9942 128.866 15.8088C128.538 15.6214 128.285 15.3567 128.107 15.0148C127.929 14.6709 127.84 14.2643 127.84 13.7948C127.84 13.337 127.929 12.9352 128.107 12.5894C128.285 12.2436 128.535 11.9741 128.857 11.7809C129.182 11.5877 129.563 11.4911 129.999 11.4911C130.293 11.4911 130.566 11.5385 130.819 11.6331C131.074 11.7259 131.296 11.8659 131.486 12.0533C131.677 12.2407 131.826 12.4764 131.932 12.7603C132.038 13.0424 132.091 13.3727 132.091 13.7514V14.0904H128.333V13.3254H130.929C130.929 13.1477 130.891 12.9902 130.813 12.8531C130.736 12.7159 130.629 12.6087 130.492 12.5314C130.356 12.4522 130.199 12.4126 130.019 12.4126C129.832 12.4126 129.666 12.4561 129.521 12.543C129.378 12.628 129.266 12.743 129.185 12.8878C129.104 13.0308 129.062 13.1902 129.06 13.366V14.0933C129.06 14.3135 129.101 14.5038 129.182 14.6641C129.265 14.8245 129.382 14.9481 129.533 15.0351C129.683 15.122 129.862 15.1655 130.069 15.1655C130.206 15.1655 130.331 15.1461 130.445 15.1075C130.559 15.0689 130.657 15.0109 130.738 14.9336C130.819 14.8564 130.881 14.7617 130.923 14.6497L132.065 14.725C132.007 14.9993 131.888 15.2389 131.709 15.4436C131.531 15.6465 131.301 15.8049 131.019 15.9189C130.739 16.0309 130.415 16.0869 130.048 16.0869ZM60.1327 26.0724C59.7947 26.0724 59.4885 25.9855 59.2141 25.8116C58.9418 25.6359 58.7254 25.378 58.5651 25.038C58.4066 24.696 58.3274 24.2768 58.3274 23.7803C58.3274 23.2703 58.4095 22.8463 58.5737 22.5082C58.738 22.1682 58.9563 21.9142 59.2286 21.7461C59.503 21.5761 59.8034 21.4911 60.1298 21.4911C60.379 21.4911 60.5867 21.5336 60.7528 21.6186C60.9209 21.7017 61.0561 21.806 61.1585 21.9316C61.2628 22.0552 61.342 22.1769 61.3961 22.2967H61.4338V20.0655H62.6653V26H61.4483V25.2872H61.3961C61.3382 25.4108 61.2561 25.5335 61.1498 25.6552C61.0455 25.7749 60.9093 25.8744 60.7412 25.9536C60.5751 26.0328 60.3723 26.0724 60.1327 26.0724ZM60.5239 25.0901C60.7229 25.0901 60.891 25.036 61.0281 24.9278C61.1672 24.8177 61.2735 24.6641 61.3469 24.4671C61.4222 24.2701 61.4599 24.0392 61.4599 23.7745C61.4599 23.5099 61.4232 23.28 61.3498 23.0849C61.2764 22.8898 61.1701 22.7391 61.031 22.6328C60.8919 22.5266 60.7229 22.4735 60.5239 22.4735C60.3211 22.4735 60.1501 22.5285 60.011 22.6386C59.8719 22.7487 59.7666 22.9014 59.6952 23.0965C59.6237 23.2916 59.588 23.5176 59.588 23.7745C59.588 24.0334 59.6237 24.2623 59.6952 24.4613C59.7686 24.6584 59.8739 24.8129 60.011 24.9249C60.1501 25.0351 60.3211 25.0901 60.5239 25.0901ZM65.7087 26.0869C65.2508 26.0869 64.8567 25.9942 64.5264 25.8088C64.198 25.6214 63.9449 25.3567 63.7672 25.0148C63.5895 24.6709 63.5006 24.2643 63.5006 23.7948C63.5006 23.337 63.5895 22.9352 63.7672 22.5894C63.9449 22.2436 64.1951 21.9741 64.5177 21.7809C64.8423 21.5877 65.2228 21.4911 65.6594 21.4911C65.9531 21.4911 66.2264 21.5385 66.4795 21.6331C66.7345 21.7259 66.9566 21.8659 67.146 22.0533C67.3372 22.2407 67.486 22.4764 67.5922 22.7603C67.6985 23.0424 67.7516 23.3727 67.7516 23.7514V24.0904H63.9932V23.3254H66.5896C66.5896 23.1477 66.551 22.9902 66.4737 22.8531C66.3964 22.7159 66.2892 22.6087 66.152 22.5314C66.0168 22.4522 65.8594 22.4126 65.6797 22.4126C65.4923 22.4126 65.3262 22.4561 65.1813 22.543C65.0383 22.628 64.9263 22.743 64.8452 22.8878C64.764 23.0308 64.7225 23.1902 64.7206 23.366V24.0933C64.7206 24.3135 64.7611 24.5038 64.8423 24.6641C64.9253 24.8245 65.0422 24.9481 65.1929 25.0351C65.3436 25.122 65.5223 25.1655 65.729 25.1655C65.8661 25.1655 65.9917 25.1461 66.1057 25.1075C66.2196 25.0689 66.3172 25.0109 66.3983 24.9336C66.4795 24.8564 66.5413 24.7617 66.5838 24.6497L67.7255 24.725C67.6675 24.9993 67.5487 25.2389 67.3691 25.4436C67.1913 25.6465 66.9615 25.8049 66.6794 25.9189C66.3993 26.0309 66.0757 26.0869 65.7087 26.0869ZM70.4689 26V20.0655H74.3982V21.0999H71.7236V22.514H74.1374V23.5485H71.7236V26H70.4689ZM76.9033 26.0869C76.4532 26.0869 76.0639 25.9913 75.7355 25.8001C75.4091 25.6069 75.157 25.3384 74.9792 24.9945C74.8015 24.6487 74.7126 24.2478 74.7126 23.7919C74.7126 23.3322 74.8015 22.9303 74.9792 22.5865C75.157 22.2407 75.4091 21.9722 75.7355 21.7809C76.0639 21.5877 76.4532 21.4911 76.9033 21.4911C77.3534 21.4911 77.7417 21.5877 78.0682 21.7809C78.3966 21.9722 78.6497 22.2407 78.8274 22.5865C79.0051 22.9303 79.094 23.3322 79.094 23.7919C79.094 24.2478 79.0051 24.6487 78.8274 24.9945C78.6497 25.3384 78.3966 25.6069 78.0682 25.8001C77.7417 25.9913 77.3534 26.0869 76.9033 26.0869ZM76.9091 25.1307C77.1139 25.1307 77.2849 25.0727 77.422 24.9568C77.5592 24.839 77.6625 24.6786 77.7321 24.4758C77.8036 24.273 77.8393 24.0421 77.8393 23.7832C77.8393 23.5244 77.8036 23.2935 77.7321 23.0907C77.6625 22.8878 77.5592 22.7275 77.422 22.6097C77.2849 22.4918 77.1139 22.4329 76.9091 22.4329C76.7024 22.4329 76.5286 22.4918 76.3875 22.6097C76.2484 22.7275 76.1432 22.8878 76.0717 23.0907C76.0021 23.2935 75.9674 23.5244 75.9674 23.7832C75.9674 24.0421 76.0021 24.273 76.0717 24.4758C76.1432 24.6786 76.2484 24.839 76.3875 24.9568C76.5286 25.0727 76.7024 25.1307 76.9091 25.1307ZM82.7509 24.1049V21.5491H83.9854V26H82.8002V25.1915H82.7538C82.6534 25.4523 82.4863 25.6619 82.2525 25.8203C82.0207 25.9787 81.7377 26.058 81.4035 26.058C81.106 26.058 80.8442 25.9903 80.6182 25.8551C80.3922 25.7199 80.2154 25.5277 80.0879 25.2785C79.9624 25.0293 79.8986 24.7308 79.8967 24.3831V21.5491H81.1311V24.1628C81.133 24.4256 81.2036 24.6332 81.3426 24.7859C81.4817 24.9385 81.6682 25.0148 81.9019 25.0148C82.0507 25.0148 82.1897 24.981 82.3192 24.9134C82.4486 24.8438 82.5529 24.7414 82.6321 24.6062C82.7133 24.471 82.7529 24.3039 82.7509 24.1049ZM84.9728 26V21.5491H86.1695V22.3257H86.2159C86.297 22.0494 86.4332 21.8408 86.6245 21.6998C86.8157 21.5568 87.036 21.4853 87.2852 21.4853C87.347 21.4853 87.4136 21.4892 87.4851 21.4969C87.5566 21.5047 87.6194 21.5153 87.6735 21.5288V22.6241C87.6155 22.6068 87.5353 22.5913 87.4329 22.5778C87.3306 22.5643 87.2369 22.5575 87.1519 22.5575C86.9703 22.5575 86.808 22.5971 86.665 22.6763C86.524 22.7536 86.412 22.8618 86.3289 23.0009C86.2478 23.1399 86.2072 23.3003 86.2072 23.4819V26H84.9728ZM89.5461 23.4268V26H88.3117V21.5491H89.4882V22.3344H89.5403C89.6388 22.0755 89.804 21.8707 90.0358 21.7201C90.2676 21.5674 90.5487 21.4911 90.8791 21.4911C91.1882 21.4911 91.4576 21.5588 91.6875 21.694C91.9174 21.8292 92.0961 22.0224 92.2236 22.2735C92.3511 22.5227 92.4149 22.8202 92.4149 23.166V26H91.1804V23.3863C91.1824 23.1139 91.1128 22.9014 90.9718 22.7488C90.8308 22.5942 90.6366 22.5169 90.3893 22.5169C90.2232 22.5169 90.0764 22.5527 89.9489 22.6241C89.8233 22.6956 89.7248 22.7999 89.6533 22.9371C89.5838 23.0723 89.548 23.2356 89.5461 23.4268ZM93.3878 26V21.5491H94.6222V26H93.3878ZM94.0079 20.9753C93.8244 20.9753 93.6669 20.9145 93.5356 20.7928C93.4061 20.6691 93.3414 20.5214 93.3414 20.3494C93.3414 20.1794 93.4061 20.0336 93.5356 19.9119C93.6669 19.7882 93.8244 19.7264 94.0079 19.7264C94.1914 19.7264 94.3479 19.7882 94.4773 19.9119C94.6087 20.0336 94.6744 20.1794 94.6744 20.3494C94.6744 20.5214 94.6087 20.6691 94.4773 20.7928C94.3479 20.9145 94.1914 20.9753 94.0079 20.9753ZM97.9785 21.5491V22.4764H95.2981V21.5491H97.9785ZM95.9066 20.4827H97.141V24.6323C97.141 24.7462 97.1584 24.8351 97.1932 24.8989C97.228 24.9607 97.2763 25.0041 97.3381 25.0293C97.4018 25.0544 97.4753 25.0669 97.5583 25.0669C97.6163 25.0669 97.6742 25.0621 97.7322 25.0524C97.7901 25.0409 97.8346 25.0322 97.8655 25.0264L98.0596 25.9449C97.9978 25.9643 97.9109 25.9865 97.7988 26.0116C97.6868 26.0386 97.5506 26.0551 97.3903 26.0609C97.0928 26.0724 96.832 26.0328 96.6079 25.942C96.3857 25.8512 96.2128 25.7102 96.0892 25.519C95.9655 25.3277 95.9047 25.0862 95.9066 24.7945V20.4827ZM101.637 24.1049V21.5491H102.871V26H101.686V25.1915H101.64C101.539 25.4523 101.372 25.6619 101.138 25.8203C100.907 25.9787 100.624 26.058 100.289 26.058C99.9919 26.058 99.7302 25.9903 99.5041 25.8551C99.2781 25.7199 99.1014 25.5277 98.9739 25.2785C98.8483 25.0293 98.7845 24.7308 98.7826 24.3831V21.5491H100.017V24.1628C100.019 24.4256 100.089 24.6332 100.229 24.7859C100.368 24.9385 100.554 25.0148 100.788 25.0148C100.937 25.0148 101.076 24.981 101.205 24.9134C101.335 24.8438 101.439 24.7414 101.518 24.6062C101.599 24.471 101.639 24.3039 101.637 24.1049ZM103.859 26V21.5491H105.055V22.3257H105.102C105.183 22.0494 105.319 21.8408 105.51 21.6998C105.702 21.5568 105.922 21.4853 106.171 21.4853C106.233 21.4853 106.3 21.4892 106.371 21.4969C106.443 21.5047 106.505 21.5153 106.559 21.5288V22.6241C106.501 22.6068 106.421 22.5913 106.319 22.5778C106.216 22.5643 106.123 22.5575 106.038 22.5575C105.856 22.5575 105.694 22.5971 105.551 22.6763C105.41 22.7536 105.298 22.8618 105.215 23.0009C105.134 23.1399 105.093 23.3003 105.093 23.4819V26H103.859ZM109.019 26.0869C108.561 26.0869 108.167 25.9942 107.837 25.8088C107.508 25.6214 107.255 25.3567 107.077 25.0148C106.9 24.6709 106.811 24.2643 106.811 23.7948C106.811 23.337 106.9 22.9352 107.077 22.5894C107.255 22.2436 107.505 21.9741 107.828 21.7809C108.152 21.5877 108.533 21.4911 108.97 21.4911C109.263 21.4911 109.537 21.5385 109.79 21.6331C110.045 21.7259 110.267 21.8659 110.456 22.0533C110.647 22.2407 110.796 22.4764 110.902 22.7603C111.009 23.0424 111.062 23.3727 111.062 23.7514V24.0904H107.303V23.3254H109.9C109.9 23.1477 109.861 22.9902 109.784 22.8531C109.707 22.7159 109.599 22.6087 109.462 22.5314C109.327 22.4522 109.17 22.4126 108.99 22.4126C108.802 22.4126 108.636 22.4561 108.491 22.543C108.348 22.628 108.236 22.743 108.155 22.8878C108.074 23.0308 108.033 23.1902 108.031 23.366V24.0933C108.031 24.3135 108.071 24.5038 108.152 24.6641C108.235 24.8245 108.352 24.9481 108.503 25.0351C108.654 25.122 108.832 25.1655 109.039 25.1655C109.176 25.1655 109.302 25.1461 109.416 25.1075C109.53 25.0689 109.627 25.0109 109.708 24.9336C109.79 24.8564 109.851 24.7617 109.894 24.6497L111.036 24.725C110.978 24.9993 110.859 25.2389 110.679 25.4436C110.502 25.6465 110.272 25.8049 109.99 25.9189C109.709 26.0309 109.386 26.0869 109.019 26.0869ZM115.396 26.0724C115.058 26.0724 114.752 25.9855 114.477 25.8116C114.205 25.6359 113.989 25.378 113.828 25.038C113.67 24.696 113.591 24.2768 113.591 23.7803C113.591 23.2703 113.673 22.8463 113.837 22.5082C114.001 22.1682 114.22 21.9142 114.492 21.7461C114.766 21.5761 115.067 21.4911 115.393 21.4911C115.642 21.4911 115.85 21.5336 116.016 21.6186C116.184 21.7017 116.319 21.806 116.422 21.9316C116.526 22.0552 116.605 22.1769 116.659 22.2967H116.697V20.0655H117.929V26H116.712V25.2872H116.659C116.601 25.4108 116.519 25.5335 116.413 25.6552C116.309 25.7749 116.173 25.8744 116.005 25.9536C115.838 26.0328 115.636 26.0724 115.396 26.0724ZM115.787 25.0901C115.986 25.0901 116.154 25.036 116.291 24.9278C116.43 24.8177 116.537 24.6641 116.61 24.4671C116.685 24.2701 116.723 24.0392 116.723 23.7745C116.723 23.5099 116.686 23.28 116.613 23.0849C116.54 22.8898 116.433 22.7391 116.294 22.6328C116.155 22.5266 115.986 22.4735 115.787 22.4735C115.584 22.4735 115.413 22.5285 115.274 22.6386C115.135 22.7487 115.03 22.9014 114.958 23.0965C114.887 23.2916 114.851 23.5176 114.851 23.7745C114.851 24.0334 114.887 24.2623 114.958 24.4613C115.032 24.6584 115.137 24.8129 115.274 24.9249C115.413 25.0351 115.584 25.0901 115.787 25.0901ZM120.972 26.0869C120.514 26.0869 120.12 25.9942 119.79 25.8088C119.461 25.6214 119.208 25.3567 119.03 25.0148C118.853 24.6709 118.764 24.2643 118.764 23.7948C118.764 23.337 118.853 22.9352 119.03 22.5894C119.208 22.2436 119.458 21.9741 119.781 21.7809C120.106 21.5877 120.486 21.4911 120.923 21.4911C121.216 21.4911 121.49 21.5385 121.743 21.6331C121.998 21.7259 122.22 21.8659 122.409 22.0533C122.6 22.2407 122.749 22.4764 122.855 22.7603C122.962 23.0424 123.015 23.3727 123.015 23.7514V24.0904H119.257V23.3254H121.853C121.853 23.1477 121.814 22.9902 121.737 22.8531C121.66 22.7159 121.552 22.6087 121.415 22.5314C121.28 22.4522 121.123 22.4126 120.943 22.4126C120.756 22.4126 120.589 22.4561 120.445 22.543C120.302 22.628 120.19 22.743 120.108 22.8878C120.027 23.0308 119.986 23.1902 119.984 23.366V24.0933C119.984 24.3135 120.024 24.5038 120.106 24.6641C120.189 24.8245 120.305 24.9481 120.456 25.0351C120.607 25.122 120.786 25.1655 120.992 25.1655C121.129 25.1655 121.255 25.1461 121.369 25.1075C121.483 25.0689 121.58 25.0109 121.662 24.9336C121.743 24.8564 121.805 24.7617 121.847 24.6497L122.989 24.725C122.931 24.9993 122.812 25.2389 122.632 25.4436C122.455 25.6465 122.225 25.8049 121.943 25.9189C121.663 26.0309 121.339 26.0869 120.972 26.0869ZM127.524 22.8183L126.394 22.8878C126.374 22.7912 126.333 22.7043 126.269 22.627C126.205 22.5478 126.121 22.4851 126.017 22.4387C125.915 22.3904 125.792 22.3663 125.649 22.3663C125.458 22.3663 125.296 22.4068 125.165 22.488C125.034 22.5672 124.968 22.6734 124.968 22.8067C124.968 22.913 125.01 23.0028 125.095 23.0762C125.18 23.1496 125.326 23.2085 125.533 23.253L126.339 23.4152C126.771 23.5041 127.094 23.647 127.306 23.8441C127.519 24.0411 127.625 24.3 127.625 24.6207C127.625 24.9124 127.539 25.1684 127.367 25.3886C127.197 25.6088 126.963 25.7807 126.666 25.9044C126.37 26.0261 126.029 26.0869 125.643 26.0869C125.054 26.0869 124.584 25.9643 124.235 25.7189C123.887 25.4716 123.683 25.1355 123.623 24.7105L124.838 24.6468C124.874 24.8264 124.963 24.9636 125.104 25.0582C125.245 25.151 125.426 25.1973 125.646 25.1973C125.862 25.1973 126.036 25.1558 126.168 25.0727C126.301 24.9877 126.368 24.8786 126.37 24.7453C126.368 24.6332 126.321 24.5415 126.228 24.47C126.136 24.3966 125.993 24.3406 125.8 24.3019L125.029 24.1484C124.594 24.0614 124.271 23.9107 124.058 23.6963C123.847 23.4819 123.742 23.2085 123.742 22.8763C123.742 22.5903 123.819 22.344 123.974 22.1373C124.13 21.9306 124.35 21.7713 124.632 21.6592C124.916 21.5472 125.248 21.4911 125.629 21.4911C126.191 21.4911 126.633 21.6099 126.956 21.8476C127.28 22.0852 127.47 22.4087 127.524 22.8183ZM133.534 21.7722C133.51 21.5385 133.411 21.3569 133.235 21.2274C133.059 21.098 132.821 21.0333 132.519 21.0333C132.315 21.0333 132.142 21.0623 132.001 21.1202C131.86 21.1763 131.752 21.2545 131.676 21.3549C131.603 21.4554 131.566 21.5694 131.566 21.6969C131.562 21.8031 131.584 21.8959 131.633 21.9751C131.683 22.0543 131.752 22.1228 131.838 22.1808C131.925 22.2368 132.026 22.2861 132.14 22.3286C132.254 22.3691 132.375 22.4039 132.505 22.4329L133.038 22.5604C133.297 22.6184 133.535 22.6956 133.751 22.7922C133.967 22.8888 134.155 23.0076 134.313 23.1486C134.472 23.2897 134.594 23.4558 134.681 23.647C134.77 23.8383 134.815 24.0576 134.817 24.3048C134.815 24.668 134.723 24.9829 134.539 25.2495C134.358 25.5141 134.095 25.7199 133.751 25.8667C133.409 26.0116 132.997 26.084 132.514 26.084C132.035 26.084 131.617 26.0106 131.262 25.8638C130.908 25.717 130.632 25.4997 130.433 25.2118C130.236 24.922 130.133 24.5637 130.123 24.1368H131.337C131.351 24.3357 131.408 24.5019 131.508 24.6352C131.61 24.7665 131.747 24.866 131.917 24.9336C132.089 24.9993 132.283 25.0322 132.499 25.0322C132.712 25.0322 132.896 25.0012 133.053 24.9394C133.211 24.8776 133.334 24.7916 133.421 24.6815C133.508 24.5714 133.551 24.4449 133.551 24.3019C133.551 24.1686 133.511 24.0566 133.432 23.9658C133.355 23.875 133.241 23.7977 133.09 23.734C132.942 23.6702 132.759 23.6123 132.543 23.5601L131.896 23.3978C131.396 23.2761 131.001 23.0859 130.711 22.827C130.421 22.5681 130.278 22.2194 130.279 21.7809C130.278 21.4216 130.373 21.1077 130.566 20.8391C130.761 20.5706 131.029 20.361 131.369 20.2103C131.709 20.0597 132.095 19.9843 132.528 19.9843C132.969 19.9843 133.353 20.0597 133.681 20.2103C134.012 20.361 134.269 20.5706 134.452 20.8391C134.636 21.1077 134.73 21.4187 134.736 21.7722H133.534ZM137.649 26.0869C137.199 26.0869 136.81 25.9913 136.481 25.8001C136.155 25.6069 135.903 25.3384 135.725 24.9945C135.547 24.6487 135.458 24.2478 135.458 23.7919C135.458 23.3322 135.547 22.9303 135.725 22.5865C135.903 22.2407 136.155 21.9722 136.481 21.7809C136.81 21.5877 137.199 21.4911 137.649 21.4911C138.099 21.4911 138.488 21.5877 138.814 21.7809C139.142 21.9722 139.395 22.2407 139.573 22.5865C139.751 22.9303 139.84 23.3322 139.84 23.7919C139.84 24.2478 139.751 24.6487 139.573 24.9945C139.395 25.3384 139.142 25.6069 138.814 25.8001C138.488 25.9913 138.099 26.0869 137.649 26.0869ZM137.655 25.1307C137.86 25.1307 138.031 25.0727 138.168 24.9568C138.305 24.839 138.408 24.6786 138.478 24.4758C138.549 24.273 138.585 24.0421 138.585 23.7832C138.585 23.5244 138.549 23.2935 138.478 23.0907C138.408 22.8878 138.305 22.7275 138.168 22.6097C138.031 22.4918 137.86 22.4329 137.655 22.4329C137.448 22.4329 137.274 22.4918 137.133 22.6097C136.994 22.7275 136.889 22.8878 136.817 23.0907C136.748 23.2935 136.713 23.5244 136.713 23.7832C136.713 24.0421 136.748 24.273 136.817 24.4758C136.889 24.6786 136.994 24.839 137.133 24.9568C137.274 25.0727 137.448 25.1307 137.655 25.1307ZM140.642 26V21.5491H141.877V26H140.642ZM141.263 20.9753C141.079 20.9753 140.922 20.9145 140.79 20.7928C140.661 20.6691 140.596 20.5214 140.596 20.3494C140.596 20.1794 140.661 20.0336 140.79 19.9119C140.922 19.7882 141.079 19.7264 141.263 19.7264C141.446 19.7264 141.603 19.7882 141.732 19.9119C141.863 20.0336 141.929 20.1794 141.929 20.3494C141.929 20.5214 141.863 20.6691 141.732 20.7928C141.603 20.9145 141.446 20.9753 141.263 20.9753ZM144.1 23.4268V26H142.866V21.5491H144.042V22.3344H144.094C144.193 22.0755 144.358 21.8707 144.59 21.7201C144.822 21.5674 145.103 21.4911 145.433 21.4911C145.742 21.4911 146.012 21.5588 146.242 21.694C146.471 21.8292 146.65 22.0224 146.778 22.2735C146.905 22.5227 146.969 22.8202 146.969 23.166V26H145.734V23.3863C145.736 23.1139 145.667 22.9014 145.526 22.7488C145.385 22.5942 145.191 22.5169 144.943 22.5169C144.777 22.5169 144.63 22.5527 144.503 22.6241C144.377 22.6956 144.279 22.7999 144.207 22.9371C144.138 23.0723 144.102 23.2356 144.1 23.4268ZM151.645 22.8183L150.515 22.8878C150.496 22.7912 150.454 22.7043 150.39 22.627C150.327 22.5478 150.243 22.4851 150.138 22.4387C150.036 22.3904 149.913 22.3663 149.77 22.3663C149.579 22.3663 149.418 22.4068 149.286 22.488C149.155 22.5672 149.089 22.6734 149.089 22.8067C149.089 22.913 149.132 23.0028 149.217 23.0762C149.302 23.1496 149.448 23.2085 149.654 23.253L150.46 23.4152C150.893 23.5041 151.215 23.647 151.428 23.8441C151.64 24.0411 151.747 24.3 151.747 24.6207C151.747 24.9124 151.661 25.1684 151.489 25.3886C151.319 25.6088 151.085 25.7807 150.787 25.9044C150.492 26.0261 150.151 26.0869 149.765 26.0869C149.175 26.0869 148.706 25.9643 148.356 25.7189C148.008 25.4716 147.805 25.1355 147.745 24.7105L148.959 24.6468C148.996 24.8264 149.085 24.9636 149.226 25.0582C149.367 25.151 149.547 25.1973 149.767 25.1973C149.984 25.1973 150.158 25.1558 150.289 25.0727C150.422 24.9877 150.49 24.8786 150.492 24.7453C150.49 24.6332 150.443 24.5415 150.35 24.47C150.257 24.3966 150.114 24.3406 149.921 24.3019L149.15 24.1484C148.716 24.0614 148.392 23.9107 148.179 23.6963C147.969 23.4819 147.864 23.2085 147.864 22.8763C147.864 22.5903 147.941 22.344 148.095 22.1373C148.252 21.9306 148.471 21.7713 148.753 21.6592C149.037 21.5472 149.369 21.4911 149.75 21.4911C150.312 21.4911 150.755 21.6099 151.077 21.8476C151.402 22.0852 151.591 22.4087 151.645 22.8183Z" fill="#EA4335"/>
<path d="M62.2365 34.6592C62.2384 34.3675 62.1437 34.1444 61.9525 33.9898C61.7632 33.8353 61.4985 33.758 61.1585 33.758C60.9151 33.758 60.6978 33.7966 60.5065 33.8739C60.3172 33.9493 60.1627 34.0536 60.0429 34.1869C59.9251 34.3182 59.8526 34.468 59.8256 34.636C59.8005 34.777 59.813 34.8987 59.8632 35.0011C59.9154 35.1035 59.9898 35.1895 60.0864 35.259C60.1849 35.3266 60.2931 35.3836 60.4109 35.43C60.5288 35.4744 60.6427 35.5111 60.7528 35.5401L61.3092 35.6908C61.4889 35.7372 61.6714 35.7999 61.8569 35.8791C62.0423 35.9584 62.2094 36.0627 62.3582 36.1921C62.5069 36.3215 62.618 36.4819 62.6914 36.6731C62.7648 36.8644 62.7793 37.0933 62.7349 37.3599C62.6769 37.696 62.5407 37.9945 62.3263 38.2553C62.1119 38.5161 61.8289 38.7218 61.4773 38.8725C61.1257 39.0232 60.7181 39.0985 60.2544 39.0985C59.8101 39.0985 59.4363 39.028 59.133 38.887C58.8316 38.746 58.6105 38.546 58.4694 38.2872C58.3284 38.0264 58.2782 37.7173 58.3187 37.3599H59.2199C59.1987 37.5743 59.2373 37.753 59.3359 37.896C59.4363 38.037 59.5773 38.1423 59.7589 38.2118C59.9405 38.2794 60.1463 38.3132 60.3761 38.3132C60.6311 38.3132 60.8639 38.2736 61.0745 38.1944C61.2851 38.1133 61.4589 38.0012 61.5961 37.8583C61.7332 37.7134 61.8173 37.5444 61.8482 37.3512C61.8791 37.1754 61.854 37.0315 61.7728 36.9194C61.6936 36.8074 61.5739 36.7147 61.4135 36.6413C61.2551 36.5678 61.0745 36.5031 60.8716 36.4471L60.2023 36.2559C59.7483 36.1264 59.4044 35.9361 59.1707 35.685C58.9369 35.4339 58.8529 35.1016 58.9186 34.6882C58.9765 34.3462 59.1195 34.0478 59.3474 33.7928C59.5754 33.5378 59.8594 33.3398 60.1994 33.1988C60.5394 33.0558 60.9084 32.9843 61.3063 32.9843C61.7081 32.9843 62.0501 33.0558 62.3321 33.1988C62.6141 33.3417 62.8228 33.5387 62.958 33.7899C63.0932 34.041 63.1406 34.3308 63.1 34.6592H62.2365ZM65.106 33.0655L64.7582 35.1779H64.0396L64.3873 33.0655H65.106ZM68.3666 37.1541L68.8013 34.5491H69.6706L68.9288 39H68.0768L68.2072 38.2292H68.1609C68.0218 38.4668 67.8247 38.6648 67.5697 38.8232C67.3167 38.9797 67.023 39.058 66.6888 39.058C66.4029 39.058 66.1605 38.9952 65.9615 38.8696C65.7645 38.7421 65.6244 38.5538 65.5413 38.3045C65.4583 38.0553 65.4467 37.7472 65.5066 37.3802L65.9818 34.5491H66.8482L66.3933 37.2759C66.345 37.5791 66.3904 37.8206 66.5295 38.0003C66.6686 38.1799 66.8714 38.2698 67.138 38.2698C67.3003 38.2698 67.4683 38.2292 67.6422 38.1481C67.8161 38.0669 67.9696 37.9443 68.1029 37.7801C68.2382 37.6159 68.3261 37.4072 68.3666 37.1541ZM71.3969 36.3573L70.9623 39H70.0958L70.8377 34.5491H71.6693L71.5476 35.2735H71.6027C71.7437 35.0359 71.9359 34.8466 72.1793 34.7056C72.4246 34.5626 72.7144 34.4911 73.0486 34.4911C73.35 34.4911 73.6031 34.5549 73.8078 34.6824C74.0145 34.808 74.1604 34.9953 74.2454 35.2445C74.3323 35.4937 74.3458 35.8019 74.286 36.1689L73.8107 39H72.9443L73.3992 36.2732C73.4514 35.9506 73.4089 35.6985 73.2717 35.5169C73.1365 35.3334 72.9211 35.2416 72.6256 35.2416C72.4246 35.2416 72.2382 35.2851 72.0663 35.372C71.8963 35.459 71.7524 35.5865 71.6345 35.7545C71.5186 35.9207 71.4394 36.1216 71.3969 36.3573ZM74.9698 39L75.7116 34.5491H76.5781L75.8362 39H74.9698ZM76.326 33.8536C76.1753 33.8536 76.0478 33.8034 75.9435 33.703C75.8411 33.6006 75.7937 33.4789 75.8015 33.3378C75.8092 33.1949 75.8691 33.0732 75.9811 32.9727C76.0932 32.8703 76.2236 32.8191 76.3723 32.8191C76.523 32.8191 76.6495 32.8703 76.7519 32.9727C76.8543 33.0732 76.9026 33.1949 76.8968 33.3378C76.8891 33.4789 76.8292 33.6006 76.7171 33.703C76.607 33.8034 76.4766 33.8536 76.326 33.8536ZM77.0018 39L77.7437 34.5491H78.5811L78.4623 35.2561H78.5087C78.6284 35.0166 78.8033 34.8282 79.0332 34.6911C79.263 34.552 79.5084 34.4824 79.7692 34.4824C79.8252 34.4824 79.8889 34.4844 79.9604 34.4882C80.0319 34.4902 80.0899 34.495 80.1343 34.5027L79.9952 35.3315C79.9624 35.3218 79.9025 35.3112 79.8155 35.2996C79.7286 35.2861 79.6388 35.2793 79.5461 35.2793C79.3432 35.2793 79.1549 35.3228 78.981 35.4097C78.8071 35.4947 78.6613 35.6135 78.5434 35.7661C78.4256 35.9168 78.3493 36.0887 78.3145 36.2819L77.8683 39H77.0018ZM82.0337 40.6691L83.0595 34.5491H83.9057L83.7869 35.2706H83.8593C83.925 35.1779 84.0139 35.0707 84.1259 34.949C84.2399 34.8273 84.3896 34.721 84.5751 34.6302C84.7605 34.5375 84.9914 34.4911 85.2676 34.4911C85.6269 34.4911 85.9312 34.5819 86.1804 34.7635C86.4296 34.9451 86.6073 35.2069 86.7136 35.5488C86.8198 35.8907 86.8334 36.3022 86.7541 36.7832C86.6749 37.2643 86.5262 37.6767 86.3079 38.0206C86.0896 38.3625 85.8249 38.6262 85.5139 38.8116C85.2048 38.9952 84.8697 39.0869 84.5084 39.0869C84.238 39.0869 84.0245 39.0415 83.868 38.9507C83.7135 38.8599 83.5985 38.7537 83.5232 38.632C83.4478 38.5103 83.3909 38.4021 83.3522 38.3074H83.3001L82.906 40.6691H82.0337ZM83.5377 36.7745C83.4874 37.0875 83.4874 37.3618 83.5377 37.5975C83.5879 37.8332 83.6884 38.0177 83.839 38.151C83.9916 38.2823 84.1926 38.348 84.4418 38.348C84.7006 38.348 84.9276 38.2794 85.1227 38.1423C85.3178 38.0032 85.4791 37.8148 85.6066 37.5772C85.7361 37.3396 85.8259 37.072 85.8761 36.7745C85.9244 36.4809 85.9235 36.2172 85.8732 35.9835C85.8249 35.7497 85.7255 35.5652 85.5748 35.43C85.4241 35.2948 85.2184 35.2272 84.9576 35.2272C84.7045 35.2272 84.4804 35.2919 84.2853 35.4213C84.0921 35.5507 83.9318 35.7314 83.8043 35.9632C83.6768 36.195 83.5879 36.4655 83.5377 36.7745ZM89.2484 39.0898C88.8253 39.0898 88.4718 38.9932 88.1878 38.8001C87.9038 38.6049 87.7039 38.3326 87.588 37.9829C87.474 37.6313 87.4547 37.2227 87.53 36.7572C87.6034 36.3012 87.7512 35.9033 87.9734 35.5633C88.1975 35.2233 88.4776 34.9596 88.8137 34.7722C89.1518 34.5848 89.5275 34.4911 89.9409 34.4911C90.364 34.4911 90.7165 34.5887 90.9986 34.7838C91.2826 34.9789 91.4825 35.2523 91.5984 35.6039C91.7143 35.9555 91.7346 36.365 91.6593 36.8325C91.5859 37.2845 91.4361 37.6806 91.2101 38.0206C90.986 38.3586 90.7059 38.6214 90.3698 38.8088C90.0336 38.9961 89.6598 39.0898 89.2484 39.0898ZM89.2976 38.3625C89.5758 38.3625 89.8183 38.2891 90.025 38.1423C90.2336 37.9955 90.4036 37.8003 90.535 37.5569C90.6663 37.3135 90.7561 37.0469 90.8044 36.7572C90.8489 36.477 90.8479 36.2211 90.8015 35.9893C90.7571 35.7555 90.6605 35.5681 90.5118 35.4271C90.363 35.2861 90.1563 35.2156 89.8917 35.2156C89.6135 35.2156 89.3691 35.2899 89.1585 35.4387C88.9499 35.5855 88.7799 35.7816 88.6485 36.0269C88.5191 36.2723 88.4312 36.5398 88.3848 36.8296C88.3404 37.1078 88.3404 37.3638 88.3848 37.5975C88.4293 37.8293 88.5259 38.0148 88.6746 38.1539C88.8234 38.293 89.031 38.3625 89.2976 38.3625ZM95.3966 37.1541L95.8313 34.5491H96.7006L95.9588 39H95.1068L95.2372 38.2292H95.1909C95.0518 38.4668 94.8547 38.6648 94.5997 38.8232C94.3467 38.9797 94.053 39.058 93.7188 39.058C93.4329 39.058 93.1905 38.9952 92.9915 38.8696C92.7945 38.7421 92.6544 38.5538 92.5713 38.3045C92.4883 38.0553 92.4767 37.7472 92.5366 37.3802L93.0118 34.5491H93.8782L93.4233 37.2759C93.375 37.5791 93.4204 37.8206 93.5595 38.0003C93.6986 38.1799 93.9014 38.2698 94.168 38.2698C94.3303 38.2698 94.4983 38.2292 94.6722 38.1481C94.8461 38.0669 94.9996 37.9443 95.1329 37.7801C95.2682 37.6159 95.3561 37.4072 95.3966 37.1541ZM97.1229 39L97.8648 34.5491H98.7022L98.5834 35.2561H98.6298C98.7495 35.0166 98.9244 34.8282 99.1542 34.6911C99.3841 34.552 99.6295 34.4824 99.8903 34.4824C99.9463 34.4824 100.01 34.4844 100.082 34.4882C100.153 34.4902 100.211 34.495 100.255 34.5027L100.116 35.3315C100.083 35.3218 100.024 35.3112 99.9366 35.2996C99.8497 35.2861 99.7599 35.2793 99.6671 35.2793C99.4643 35.2793 99.2759 35.3228 99.1021 35.4097C98.9282 35.4947 98.7824 35.6135 98.6645 35.7661C98.5467 35.9168 98.4704 36.0887 98.4356 36.2819L97.9894 39H97.1229ZM104.091 39.0869C103.729 39.0869 103.423 38.9952 103.172 38.8116C102.923 38.6262 102.746 38.3625 102.642 38.0206C102.539 37.6767 102.528 37.2643 102.607 36.7832C102.688 36.3022 102.838 35.8907 103.056 35.5488C103.274 35.2069 103.539 34.9451 103.85 34.7635C104.161 34.5819 104.496 34.4911 104.856 34.4911C105.132 34.4911 105.346 34.5375 105.499 34.6302C105.653 34.721 105.767 34.8273 105.841 34.949C105.914 35.0707 105.969 35.1779 106.006 35.2706H106.055L106.423 33.0655H107.29L106.304 39H105.458L105.577 38.3074H105.505C105.437 38.4021 105.343 38.5103 105.224 38.632C105.106 38.7537 104.955 38.8599 104.771 38.9507C104.588 39.0415 104.361 39.0869 104.091 39.0869ZM104.383 38.348C104.632 38.348 104.856 38.2823 105.053 38.151C105.252 38.0177 105.417 37.8332 105.548 37.5975C105.681 37.3618 105.774 37.0875 105.826 36.7745C105.878 36.4655 105.877 36.195 105.823 35.9632C105.769 35.7314 105.665 35.5507 105.51 35.4213C105.356 35.2919 105.152 35.2272 104.899 35.2272C104.638 35.2272 104.411 35.2948 104.218 35.43C104.025 35.5652 103.866 35.7497 103.743 35.9835C103.621 36.2172 103.536 36.4809 103.488 36.7745C103.438 37.072 103.436 37.3396 103.482 37.5772C103.528 37.8148 103.626 38.0032 103.775 38.1423C103.923 38.2794 104.126 38.348 104.383 38.348ZM109.445 39.0898C109.008 39.0898 108.647 38.9961 108.361 38.8088C108.077 38.6194 107.878 38.3538 107.764 38.0119C107.65 37.668 107.632 37.2652 107.709 36.8035C107.784 36.3476 107.936 35.9458 108.164 35.5981C108.392 35.2503 108.676 34.9789 109.016 34.7838C109.358 34.5887 109.736 34.4911 110.149 34.4911C110.4 34.4911 110.637 34.5327 110.859 34.6157C111.083 34.6988 111.273 34.8292 111.43 35.0069C111.586 35.1847 111.694 35.4155 111.754 35.6995C111.816 35.9815 111.814 36.3244 111.748 36.7282L111.699 37.0353H108.158L108.26 36.3863H110.949C110.989 36.1583 110.979 35.9564 110.917 35.7806C110.855 35.6029 110.749 35.4628 110.598 35.3605C110.449 35.2581 110.262 35.2069 110.036 35.2069C109.804 35.2069 109.588 35.2677 109.387 35.3894C109.186 35.5111 109.018 35.6666 108.883 35.856C108.749 36.0434 108.665 36.2365 108.631 36.4355L108.529 37.0295C108.479 37.3541 108.488 37.6149 108.555 37.8119C108.625 38.009 108.746 38.1519 108.92 38.2408C109.094 38.3297 109.312 38.3741 109.572 38.3741C109.74 38.3741 109.896 38.3509 110.039 38.3045C110.184 38.2562 110.312 38.1857 110.424 38.093C110.536 37.9984 110.63 37.8805 110.705 37.7395L111.499 37.8873C111.393 38.1287 111.24 38.3403 111.041 38.5219C110.842 38.7015 110.608 38.8416 110.337 38.942C110.069 39.0406 109.771 39.0898 109.445 39.0898ZM116.241 35.6357L115.432 35.7748C115.415 35.6724 115.379 35.5759 115.325 35.4851C115.273 35.3943 115.193 35.3209 115.085 35.2648C114.976 35.2069 114.832 35.1779 114.653 35.1779C114.404 35.1779 114.185 35.2349 113.998 35.3489C113.812 35.4628 113.706 35.6077 113.679 35.7835C113.654 35.9265 113.688 36.0424 113.781 36.1313C113.873 36.2182 114.036 36.2906 114.27 36.3486L114.954 36.5109C115.348 36.6055 115.63 36.7533 115.8 36.9542C115.972 37.1532 116.032 37.412 115.98 37.7308C115.935 37.9955 115.82 38.2302 115.632 38.4349C115.447 38.6397 115.209 38.8001 114.919 38.916C114.63 39.0319 114.307 39.0898 113.951 39.0898C113.445 39.0898 113.051 38.9826 112.769 38.7682C112.487 38.5538 112.342 38.2505 112.335 37.8583L113.192 37.7308C113.208 37.9491 113.286 38.1143 113.427 38.2263C113.57 38.3364 113.768 38.3915 114.021 38.3915C114.311 38.3934 114.553 38.3326 114.748 38.2089C114.943 38.0853 115.055 37.9356 115.082 37.7598C115.105 37.6226 115.074 37.5086 114.989 37.4178C114.906 37.327 114.759 37.2575 114.548 37.2092L113.83 37.044C113.428 36.9494 113.144 36.7968 112.978 36.5862C112.812 36.3756 112.756 36.111 112.81 35.7922C112.852 35.5314 112.962 35.3044 113.14 35.1113C113.32 34.9161 113.547 34.7645 113.821 34.6563C114.095 34.5462 114.399 34.4911 114.731 34.4911C115.216 34.4911 115.58 34.5955 115.823 34.8041C116.067 35.0108 116.206 35.288 116.241 35.6357ZM122.775 35.6357L121.967 35.7748C121.949 35.6724 121.913 35.5759 121.859 35.4851C121.807 35.3943 121.727 35.3209 121.619 35.2648C121.511 35.2069 121.367 35.1779 121.187 35.1779C120.938 35.1779 120.72 35.2349 120.532 35.3489C120.347 35.4628 120.241 35.6077 120.213 35.7835C120.188 35.9265 120.222 36.0424 120.315 36.1313C120.408 36.2182 120.571 36.2906 120.805 36.3486L121.488 36.5109C121.883 36.6055 122.165 36.7533 122.335 36.9542C122.507 37.1532 122.566 37.412 122.514 37.7308C122.47 37.9955 122.354 38.2302 122.167 38.4349C121.981 38.6397 121.743 38.8001 121.454 38.916C121.164 39.0319 120.841 39.0898 120.486 39.0898C119.98 39.0898 119.586 38.9826 119.304 38.7682C119.022 38.5538 118.877 38.2505 118.869 37.8583L119.727 37.7308C119.742 37.9491 119.82 38.1143 119.961 38.2263C120.104 38.3364 120.302 38.3915 120.555 38.3915C120.845 38.3934 121.088 38.3326 121.283 38.2089C121.478 38.0853 121.589 37.9356 121.616 37.7598C121.639 37.6226 121.608 37.5086 121.523 37.4178C121.44 37.327 121.293 37.2575 121.083 37.2092L120.364 37.044C119.962 36.9494 119.678 36.7968 119.512 36.5862C119.346 36.3756 119.29 36.111 119.344 35.7922C119.387 35.5314 119.497 35.3044 119.675 35.1113C119.854 34.9161 120.081 34.7645 120.355 34.6563C120.63 34.5462 120.933 34.4911 121.265 34.4911C121.75 34.4911 122.114 34.5955 122.358 34.8041C122.601 35.0108 122.74 35.288 122.775 35.6357ZM125.148 39.0898C124.725 39.0898 124.371 38.9932 124.087 38.8001C123.803 38.6049 123.603 38.3326 123.487 37.9829C123.373 37.6313 123.354 37.2227 123.429 36.7572C123.503 36.3012 123.65 35.9033 123.873 35.5633C124.097 35.2233 124.377 34.9596 124.713 34.7722C125.051 34.5848 125.427 34.4911 125.84 34.4911C126.263 34.4911 126.616 34.5887 126.898 34.7838C127.182 34.9789 127.382 35.2523 127.498 35.6039C127.614 35.9555 127.634 36.365 127.558 36.8325C127.485 37.2845 127.335 37.6806 127.109 38.0206C126.885 38.3586 126.605 38.6214 126.269 38.8088C125.933 38.9961 125.559 39.0898 125.148 39.0898ZM125.197 38.3625C125.475 38.3625 125.717 38.2891 125.924 38.1423C126.133 37.9955 126.303 37.8003 126.434 37.5569C126.566 37.3135 126.655 37.0469 126.704 36.7572C126.748 36.477 126.747 36.2211 126.701 35.9893C126.656 35.7555 126.56 35.5681 126.411 35.4271C126.262 35.2861 126.056 35.2156 125.791 35.2156C125.513 35.2156 125.268 35.2899 125.058 35.4387C124.849 35.5855 124.679 35.7816 124.548 36.0269C124.418 36.2723 124.33 36.5398 124.284 36.8296C124.24 37.1078 124.24 37.3638 124.284 37.5975C124.328 37.8293 124.425 38.0148 124.574 38.1539C124.723 38.293 124.93 38.3625 125.197 38.3625ZM128.169 39L128.911 34.5491H129.777L129.036 39H128.169ZM129.525 33.8536C129.375 33.8536 129.247 33.8034 129.143 33.703C129.04 33.6006 128.993 33.4789 129.001 33.3378C129.009 33.1949 129.068 33.0732 129.18 32.9727C129.293 32.8703 129.423 32.8191 129.572 32.8191C129.722 32.8191 129.849 32.8703 129.951 32.9727C130.054 33.0732 130.102 33.1949 130.096 33.3378C130.088 33.4789 130.029 33.6006 129.917 33.703C129.806 33.8034 129.676 33.8536 129.525 33.8536ZM131.505 36.3573L131.071 39H130.204L130.946 34.5491H131.778L131.656 35.2735H131.711C131.852 35.0359 132.044 34.8466 132.288 34.7056C132.533 34.5626 132.823 34.4911 133.157 34.4911C133.458 34.4911 133.711 34.5549 133.916 34.6824C134.123 34.808 134.269 34.9953 134.354 35.2445C134.441 35.4937 134.454 35.8019 134.394 36.1689L133.919 39H133.053L133.508 36.2732C133.56 35.9506 133.517 35.6985 133.38 35.5169C133.245 35.3334 133.029 35.2416 132.734 35.2416C132.533 35.2416 132.347 35.2851 132.175 35.372C132.005 35.459 131.861 35.5865 131.743 35.7545C131.627 35.9207 131.548 36.1216 131.505 36.3573ZM138.976 35.6357L138.167 35.7748C138.15 35.6724 138.114 35.5759 138.06 35.4851C138.008 35.3943 137.928 35.3209 137.819 35.2648C137.711 35.2069 137.567 35.1779 137.388 35.1779C137.138 35.1779 136.92 35.2349 136.733 35.3489C136.547 35.4628 136.441 35.6077 136.414 35.7835C136.389 35.9265 136.423 36.0424 136.515 36.1313C136.608 36.2182 136.771 36.2906 137.005 36.3486L137.689 36.5109C138.083 36.6055 138.365 36.7533 138.535 36.9542C138.707 37.1532 138.767 37.412 138.715 37.7308C138.67 37.9955 138.554 38.2302 138.367 38.4349C138.182 38.6397 137.944 38.8001 137.654 38.916C137.364 39.0319 137.042 39.0898 136.686 39.0898C136.18 39.0898 135.786 38.9826 135.504 38.7682C135.222 38.5538 135.077 38.2505 135.069 37.8583L135.927 37.7308C135.943 37.9491 136.021 38.1143 136.162 38.2263C136.305 38.3364 136.503 38.3915 136.756 38.3915C137.046 38.3934 137.288 38.3326 137.483 38.2089C137.678 38.0853 137.789 37.9356 137.816 37.7598C137.84 37.6226 137.809 37.5086 137.724 37.4178C137.641 37.327 137.494 37.2575 137.283 37.2092L136.565 37.044C136.163 36.9494 135.879 36.7968 135.713 36.5862C135.547 36.3756 135.491 36.111 135.545 35.7922C135.587 35.5314 135.697 35.3044 135.875 35.1113C136.055 34.9161 136.282 34.7645 136.556 34.6563C136.83 34.5462 137.134 34.4911 137.466 34.4911C137.951 34.4911 138.315 34.5955 138.558 34.8041C138.802 35.0108 138.941 35.288 138.976 35.6357ZM143.273 39.0869C142.912 39.0869 142.605 38.9952 142.354 38.8116C142.105 38.6262 141.928 38.3625 141.824 38.0206C141.722 37.6767 141.71 37.2643 141.789 36.7832C141.87 36.3022 142.02 35.8907 142.238 35.5488C142.457 35.2069 142.721 34.9451 143.032 34.7635C143.343 34.5819 143.679 34.4911 144.038 34.4911C144.314 34.4911 144.529 34.5375 144.681 34.6302C144.836 34.721 144.95 34.8273 145.023 34.949C145.097 35.0707 145.152 35.1779 145.188 35.2706H145.238L145.606 33.0655H146.472L145.487 39H144.641L144.759 38.3074H144.687C144.619 38.4021 144.526 38.5103 144.406 38.632C144.288 38.7537 144.137 38.8599 143.954 38.9507C143.77 39.0415 143.543 39.0869 143.273 39.0869ZM143.566 38.348C143.815 38.348 144.038 38.2823 144.235 38.151C144.434 38.0177 144.599 37.8332 144.73 37.5975C144.864 37.3618 144.956 37.0875 145.009 36.7745C145.061 36.4655 145.06 36.195 145.006 35.9632C144.952 35.7314 144.847 35.5507 144.693 35.4213C144.538 35.2919 144.334 35.2272 144.081 35.2272C143.821 35.2272 143.594 35.2948 143.4 35.43C143.207 35.5652 143.049 35.7497 142.925 35.9835C142.803 36.2172 142.718 36.4809 142.67 36.7745C142.62 37.072 142.618 37.3396 142.664 37.5772C142.711 37.8148 142.808 38.0032 142.957 38.1423C143.106 38.2794 143.309 38.348 143.566 38.348ZM148.627 39.0898C148.191 39.0898 147.829 38.9961 147.543 38.8088C147.259 38.6194 147.06 38.3538 146.946 38.0119C146.832 37.668 146.814 37.2652 146.891 36.8035C146.967 36.3476 147.118 35.9458 147.346 35.5981C147.574 35.2503 147.858 34.9789 148.198 34.7838C148.54 34.5887 148.918 34.4911 149.331 34.4911C149.582 34.4911 149.819 34.5327 150.041 34.6157C150.265 34.6988 150.456 34.8292 150.612 35.0069C150.769 35.1847 150.877 35.4155 150.937 35.6995C150.998 35.9815 150.997 36.3244 150.931 36.7282L150.882 37.0353H147.341L147.442 36.3863H150.131C150.172 36.1583 150.161 35.9564 150.099 35.7806C150.037 35.6029 149.931 35.4628 149.78 35.3605C149.632 35.2581 149.444 35.2069 149.218 35.2069C148.986 35.2069 148.77 35.2677 148.569 35.3894C148.368 35.5111 148.2 35.6666 148.065 35.856C147.932 36.0434 147.848 36.2365 147.813 36.4355L147.711 37.0295C147.661 37.3541 147.67 37.6149 147.738 37.8119C147.807 38.009 147.929 38.1519 148.103 38.2408C148.277 38.3297 148.494 38.3741 148.755 38.3741C148.923 38.3741 149.078 38.3509 149.221 38.3045C149.366 38.2562 149.495 38.1857 149.607 38.093C149.719 37.9984 149.812 37.8805 149.888 37.7395L150.682 37.8873C150.575 38.1287 150.423 38.3403 150.224 38.5219C150.025 38.7015 149.79 38.8416 149.52 38.942C149.251 39.0406 148.954 39.0898 148.627 39.0898ZM156.412 40.6691L156.8 38.3074H156.751C156.683 38.4021 156.591 38.5103 156.473 38.632C156.355 38.7537 156.203 38.8599 156.018 38.9507C155.834 39.0415 155.607 39.0869 155.337 39.0869C154.976 39.0869 154.67 38.9952 154.421 38.8116C154.172 38.6262 153.995 38.3625 153.891 38.0206C153.788 37.6767 153.777 37.2643 153.856 36.7832C153.935 36.3022 154.084 35.8907 154.302 35.5488C154.521 35.2069 154.785 34.9451 155.096 34.7635C155.407 34.5819 155.743 34.4911 156.102 34.4911C156.378 34.4911 156.593 34.5375 156.745 34.6302C156.9 34.721 157.014 34.8273 157.087 34.949C157.16 35.0707 157.216 35.1779 157.252 35.2706H157.322L157.446 34.5491H158.293L157.278 40.6691H156.412ZM155.647 38.348C155.898 38.348 156.121 38.2823 156.316 38.151C156.511 38.0177 156.673 37.8332 156.8 37.5975C156.93 37.3618 157.02 37.0875 157.073 36.7745C157.125 36.4655 157.125 36.195 157.073 35.9632C157.022 35.7314 156.922 35.5507 156.771 35.4213C156.621 35.2919 156.42 35.2272 156.168 35.2272C155.906 35.2272 155.676 35.2948 155.479 35.43C155.282 35.5652 155.12 35.7497 154.995 35.9835C154.869 36.2172 154.781 36.4809 154.731 36.7745C154.683 37.072 154.684 37.3396 154.734 37.5772C154.784 37.8148 154.885 38.0032 155.035 38.1423C155.188 38.2794 155.392 38.348 155.647 38.348ZM161.848 37.1541L162.283 34.5491H163.152L162.41 39H161.558L161.689 38.2292H161.642C161.503 38.4668 161.306 38.6648 161.051 38.8232C160.798 38.9797 160.504 39.058 160.17 39.058C159.884 39.058 159.642 38.9952 159.443 38.8696C159.246 38.7421 159.106 38.5538 159.023 38.3045C158.94 38.0553 158.928 37.7472 158.988 37.3802L159.463 34.5491H160.33L159.875 37.2759C159.826 37.5791 159.872 37.8206 160.011 38.0003C160.15 38.1799 160.353 38.2698 160.619 38.2698C160.782 38.2698 160.95 38.2292 161.124 38.1481C161.297 38.0669 161.451 37.9443 161.584 37.7801C161.72 37.6159 161.807 37.4072 161.848 37.1541ZM164.858 39.0985C164.576 39.0985 164.33 39.0464 164.119 38.942C163.909 38.8358 163.753 38.6822 163.653 38.4813C163.552 38.2804 163.526 38.0341 163.574 37.7424C163.617 37.4912 163.7 37.2845 163.824 37.1223C163.949 36.96 164.102 36.8315 164.281 36.7369C164.461 36.6403 164.656 36.5678 164.867 36.5195C165.077 36.4712 165.29 36.4355 165.504 36.4123C165.775 36.3814 165.994 36.3553 166.162 36.3341C166.332 36.3128 166.46 36.28 166.545 36.2356C166.63 36.1892 166.681 36.1139 166.698 36.0095V35.9893C166.739 35.7381 166.702 35.543 166.588 35.4039C166.476 35.2629 166.281 35.1924 166.003 35.1924C165.713 35.1924 165.469 35.2561 165.272 35.3836C165.077 35.5111 164.933 35.6541 164.841 35.8125L164.064 35.627C164.203 35.3566 164.38 35.1383 164.594 34.9722C164.811 34.8041 165.047 34.6824 165.304 34.607C165.561 34.5298 165.824 34.4911 166.092 34.4911C166.27 34.4911 166.455 34.5124 166.646 34.5549C166.837 34.5955 167.011 34.6708 167.168 34.7809C167.326 34.891 167.444 35.0485 167.521 35.2532C167.598 35.4561 167.61 35.7198 167.556 36.0443L167.066 39H166.22L166.324 38.3915H166.29C166.216 38.5035 166.114 38.6136 165.982 38.7218C165.853 38.83 165.695 38.9198 165.507 38.9913C165.32 39.0628 165.103 39.0985 164.858 39.0985ZM165.154 38.4031C165.395 38.4031 165.609 38.3557 165.794 38.2611C165.981 38.1664 166.133 38.0428 166.249 37.8902C166.365 37.7356 166.437 37.5705 166.466 37.3947L166.562 36.8209C166.525 36.8518 166.46 36.8798 166.368 36.9049C166.277 36.9301 166.175 36.9523 166.061 36.9716C165.947 36.9909 165.835 37.0073 165.724 37.0209C165.616 37.0344 165.526 37.0469 165.455 37.0585C165.285 37.0798 165.126 37.1155 164.977 37.1657C164.83 37.216 164.707 37.2884 164.609 37.3831C164.51 37.4758 164.448 37.5994 164.423 37.754C164.389 37.9684 164.44 38.1307 164.577 38.2408C164.716 38.349 164.908 38.4031 165.154 38.4031ZM170.072 33.0655L169.087 39H168.22L169.205 33.0655H170.072ZM170.252 39L170.994 34.5491H171.86L171.119 39H170.252ZM171.608 33.8536C171.458 33.8536 171.33 33.8034 171.226 33.703C171.123 33.6006 171.076 33.4789 171.084 33.3378C171.092 33.1949 171.151 33.0732 171.263 32.9727C171.376 32.8703 171.506 32.8191 171.655 32.8191C171.805 32.8191 171.932 32.8703 172.034 32.9727C172.137 33.0732 172.185 33.1949 172.179 33.3378C172.171 33.4789 172.112 33.6006 171.999 33.703C171.889 33.8034 171.759 33.8536 171.608 33.8536ZM175.104 34.5491L174.991 35.2445H172.559L172.672 34.5491H175.104ZM173.498 33.4827H174.365L173.664 37.6931C173.636 37.8612 173.641 37.9877 173.678 38.0727C173.715 38.1558 173.771 38.2128 173.846 38.2437C173.923 38.2727 174.009 38.2872 174.104 38.2872C174.174 38.2872 174.234 38.2823 174.287 38.2727C174.339 38.263 174.38 38.2553 174.411 38.2495L174.457 38.9652C174.4 38.9845 174.321 39.0039 174.223 39.0232C174.126 39.0444 174.008 39.056 173.869 39.058C173.641 39.0618 173.436 39.0212 173.252 38.9363C173.069 38.8493 172.931 38.718 172.841 38.5422C172.75 38.3644 172.728 38.1413 172.774 37.8728L173.498 33.4827ZM177.179 39.0898C176.743 39.0898 176.381 38.9961 176.095 38.8088C175.811 38.6194 175.612 38.3538 175.498 38.0119C175.385 37.668 175.366 37.2652 175.443 36.8035C175.519 36.3476 175.67 35.9458 175.898 35.5981C176.126 35.2503 176.41 34.9789 176.75 34.7838C177.092 34.5887 177.47 34.4911 177.883 34.4911C178.134 34.4911 178.371 34.5327 178.593 34.6157C178.817 34.6988 179.008 34.8292 179.164 35.0069C179.321 35.1847 179.429 35.4155 179.489 35.6995C179.55 35.9815 179.549 36.3244 179.483 36.7282L179.434 37.0353H175.893L175.994 36.3863H178.683C178.724 36.1583 178.713 35.9564 178.651 35.7806C178.589 35.6029 178.483 35.4628 178.332 35.3605C178.184 35.2581 177.996 35.2069 177.77 35.2069C177.538 35.2069 177.322 35.2677 177.121 35.3894C176.92 35.5111 176.752 35.6666 176.617 35.856C176.484 36.0434 176.4 36.2365 176.365 36.4355L176.263 37.0295C176.213 37.3541 176.222 37.6149 176.29 37.8119C176.359 38.009 176.481 38.1519 176.655 38.2408C176.829 38.3297 177.046 38.3741 177.307 38.3741C177.475 38.3741 177.63 38.3509 177.773 38.3045C177.918 38.2562 178.047 38.1857 178.159 38.093C178.271 37.9984 178.364 37.8805 178.44 37.7395L179.234 37.8873C179.127 38.1287 178.975 38.3403 178.776 38.5219C178.577 38.7015 178.342 38.8416 178.072 38.942C177.803 39.0406 177.506 39.0898 177.179 39.0898ZM177.57 33.9551L178.469 32.6192H179.381L178.266 33.9551H177.57Z" fill="#176B4D"/>
</svg>
