<svg width="725" height="725" viewBox="0 0 725 725" fill="none" xmlns="http://www.w3.org/2000/svg">
<path fill-rule="evenodd" clip-rule="evenodd" d="M410.681 265.376C410.681 238.739 389.086 217.145 362.449 217.145C335.811 217.145 314.217 238.739 314.217 265.376V313.609C314.217 328.545 314.217 336.013 315.206 342.262C320.654 376.659 347.632 403.636 382.029 409.084C388.277 410.073 395.745 410.073 410.681 410.073H458.913C485.551 410.073 507.146 388.479 507.146 361.841C507.146 335.203 485.551 313.609 458.913 313.609H417.915C413.92 313.609 410.681 310.37 410.681 306.374V265.376Z" fill="#176B4D"/>
<g style="mix-blend-mode:darken">
<path fill-rule="evenodd" clip-rule="evenodd" d="M313.61 458.913C313.61 485.55 335.205 507.145 361.842 507.145C388.48 507.145 410.074 485.55 410.074 458.913L410.074 412.18C410.074 398.638 410.074 391.867 409.26 386.191C404.193 350.856 376.432 323.096 341.098 318.029C335.422 317.215 328.651 317.215 315.109 317.215L264.628 317.215C238.404 317.215 217.145 338.473 217.145 364.697C217.145 390.921 238.404 412.179 264.628 412.179L306.376 412.179C310.371 412.179 313.61 415.419 313.61 419.414L313.61 458.913Z" fill="#EA4335"/>
</g>
<path fill-rule="evenodd" clip-rule="evenodd" d="M232.595 19.8389C251.5 12.6842 271.658 24.4438 276.89 43.9687C282.121 63.4935 270.412 83.3513 251.692 90.9765C206.138 109.531 165.798 139.349 134.596 177.88C103.395 216.41 82.6161 262.069 73.9378 310.484C70.3715 330.381 53.3821 345.963 33.1962 344.905C13.0103 343.847 -2.68334 326.575 0.3844 306.596C7.51262 260.171 23.5058 215.596 47.4329 175.295C55.3843 179.047 64.2695 181.145 73.6445 181.145C107.61 181.145 135.145 153.61 135.145 119.645C135.145 106.472 131.003 94.2666 123.951 84.2595C156.102 56.702 192.854 34.8791 232.595 19.8389Z" fill="#EA4335"/>
<circle cx="73.5" cy="119.5" r="41.5" fill="#EA4335"/>
<path fill-rule="evenodd" clip-rule="evenodd" d="M704.45 232.595C711.605 251.5 699.845 271.658 680.32 276.89C660.796 282.121 640.938 270.412 633.313 251.692C614.758 206.138 584.94 165.798 546.409 134.596C507.879 103.395 462.221 82.6161 413.805 73.9378C393.908 70.3714 378.326 53.3821 379.384 33.1962C380.442 13.0103 397.714 -2.68336 417.693 0.384387C464.118 7.51269 508.694 23.5062 548.995 47.4338C545.243 55.3855 543.146 64.271 543.146 73.6465C543.146 107.612 570.68 135.146 604.646 135.146C617.818 135.146 630.024 131.005 640.031 123.953C667.588 156.103 689.41 192.855 704.45 232.595Z" fill="#176B4D"/>
<circle cx="604.502" cy="73.5" r="41.5" transform="rotate(90 604.502 73.5)" fill="#176B4D"/>
<path fill-rule="evenodd" clip-rule="evenodd" d="M491.694 704.45C472.789 711.605 452.631 699.845 447.399 680.32C442.168 660.796 453.877 640.938 472.597 633.313C518.151 614.758 558.491 584.94 589.693 546.409C620.894 507.879 641.673 462.22 650.351 413.805C653.918 393.908 670.907 378.326 691.093 379.384C711.279 380.442 726.972 397.714 723.905 417.693C716.776 464.118 700.783 508.693 676.856 548.994C668.904 545.242 660.018 543.144 650.642 543.144C616.677 543.144 589.142 570.678 589.142 604.644C589.142 617.817 593.284 630.023 600.337 640.03C568.187 667.587 531.435 689.41 491.694 704.45Z" fill="#EA4335"/>
<ellipse cx="650.5" cy="604.5" rx="41.5" ry="41.5" transform="rotate(-180 650.5 604.5)" fill="#EA4335"/>
<path fill-rule="evenodd" clip-rule="evenodd" d="M19.8389 491.694C12.6842 472.789 24.4438 452.631 43.9687 447.399C63.4935 442.168 83.3513 453.877 90.9765 472.597C109.531 518.151 139.349 558.491 177.88 589.693C216.41 620.894 262.069 641.673 310.484 650.351C330.381 653.918 345.963 670.907 344.905 691.093C343.847 711.279 326.575 726.972 306.596 723.905C260.171 716.776 215.596 700.783 175.295 676.856C179.047 668.905 181.145 660.02 181.145 650.644C181.145 616.679 153.61 589.144 119.645 589.144C106.472 589.144 94.2665 593.286 84.2594 600.338C56.7019 568.187 34.8791 531.435 19.8389 491.694Z" fill="#176B4D"/>
<circle cx="119.5" cy="650.5" r="41.5" transform="rotate(-90 119.5 650.5)" fill="#176B4D"/>
</svg>
